# Blender 3.6.5
# www.blender.org
mtllib fox_mask_obj.mtl
o foxmask
v -0.498547 1.637108 -0.001891
v -0.582365 0.179831 -0.001891
v -0.403830 1.205368 -0.001891
v -0.486763 0.272324 -0.001891
v -0.341073 0.937982 -0.001891
v -0.406216 0.344093 -0.001891
v -0.320384 0.432636 -0.001891
v -0.715481 2.192786 -0.001891
v -0.726344 0.024192 -0.001891
v -0.590490 1.936022 -0.001891
v -0.648621 0.110268 -0.001891
v -0.286406 0.808407 -0.001891
v -0.200658 0.616369 -0.001891
v -0.689098 0.065685 -0.001891
v -0.656033 2.079096 -0.001891
v -0.616360 0.149034 -0.001891
v -0.541145 1.799234 -0.001891
v -0.536184 0.225336 -0.001891
v -0.450282 1.421485 -0.001891
v -0.444502 0.310819 -0.001891
v -0.368505 1.046198 -0.001891
v -0.751337 2.206249 -0.001891
v -0.751337 0.017933 -0.001891
v -0.257751 0.513414 -0.001891
v -0.249117 0.727354 -0.001891
v -0.211835 0.652619 -0.001891
v -0.214756 0.575255 -0.001891
v -0.712851 1.175297 -0.847614
v -0.723759 1.581386 -0.854691
v -0.708319 1.753825 -0.772565
v -0.712190 1.933634 -0.657689
v -0.714186 2.050995 -0.517680
v -0.727586 2.187159 -0.298452
v -0.723313 0.090071 -0.246375
v -0.720942 0.243321 -0.463601
v -0.718387 0.447778 -0.629036
v -0.715750 0.665271 -0.743322
v -0.713395 0.898298 -0.816327
v -0.578536 1.029152 -0.679841
v -0.580444 1.266036 -0.670702
v -0.592131 1.543196 -0.627843
v -0.590318 1.699626 -0.534386
v -0.593101 1.832650 -0.395798
v -0.593146 1.908300 -0.211397
v -0.633821 0.186302 -0.197830
v -0.621270 0.306474 -0.371752
v -0.610045 0.455992 -0.499020
v -0.595878 0.621376 -0.590356
v -0.582513 0.806699 -0.653468
v -0.491970 0.890297 -0.542377
v -0.509951 1.500913 -0.437375
v -0.504101 1.576087 -0.317906
v -0.499070 1.614680 -0.164251
v -0.567169 0.246174 -0.156027
v -0.548627 0.341184 -0.294302
v -0.536327 0.449364 -0.396579
v -0.521120 0.572219 -0.473068
v -0.501933 0.715813 -0.522387
v -0.449250 1.340896 -0.262621
v -0.413069 0.727963 -0.392310
v -0.404652 0.831549 -0.374202
v -0.397969 0.926590 -0.337151
v -0.399549 1.135760 -0.208268
v -0.404368 1.194059 -0.116544
v -0.477200 0.310983 -0.109855
v -0.461908 0.373900 -0.208913
v -0.451219 0.445419 -0.286523
v -0.438725 0.527284 -0.343025
v -0.424368 0.620153 -0.378306
v -0.357948 0.658676 -0.304219
v -0.355018 0.735801 -0.297655
v -0.353738 0.813268 -0.272736
v -0.349730 0.874256 -0.227615
v -0.345599 0.917241 -0.165947
v -0.341973 0.932986 -0.087497
v -0.400009 0.366389 -0.083644
v -0.390390 0.406995 -0.159482
v -0.381119 0.458526 -0.220633
v -0.371823 0.519750 -0.265241
v -0.363916 0.586790 -0.293201
v -0.297499 0.639121 -0.217876
v -0.295639 0.687308 -0.212489
v -0.293743 0.732647 -0.193596
v -0.291495 0.768583 -0.161298
v -0.288903 0.791711 -0.116684
v -0.286932 0.803319 -0.061636
v -0.317016 0.443950 -0.059475
v -0.312129 0.467497 -0.113202
v -0.306887 0.502542 -0.157044
v -0.302422 0.545604 -0.189609
v -0.299574 0.591663 -0.210089
v -0.720198 2.123439 -0.409053
v -0.384358 0.982657 -0.267857
v -0.499932 1.145802 -0.544681
v -0.573687 1.392735 -0.638995
v -0.482335 1.395740 -0.407049
v -0.418666 1.007799 -0.359676
v -0.554007 1.445455 -0.588205
v -0.446676 1.045804 -0.432407
v -0.505914 1.423882 -0.473175
v -0.403916 1.136615 -0.239447
v -0.400727 0.994344 -0.311403
v -0.449091 1.297932 -0.313207
v -0.386951 1.054783 -0.229420
v -0.581795 1.432890 -0.644552
v -0.751337 2.224706 -0.914787
v -0.751337 2.409946 -0.884343
v -0.751337 2.539745 -0.811316
v -0.751337 2.516183 -0.686888
v -0.751337 2.330112 -0.452614
v -0.751337 1.902245 -0.904146
v -0.751337 2.091308 -0.917407
v -0.741186 2.214714 -0.874349
v -0.741186 2.352635 -0.859200
v -0.741930 2.426562 -0.830764
v -0.741186 2.473805 -0.787273
v -0.741186 2.450032 -0.694677
v -0.741186 2.313858 -0.529245
v -0.741186 2.218414 -0.447132
v -0.741186 2.170914 -0.489166
v -0.741186 2.104109 -0.599518
v -0.741186 2.022363 -0.699550
v -0.741930 1.942622 -0.777333
v -0.741186 1.910029 -0.830304
v -0.741186 1.987626 -0.860642
v -0.741186 2.104753 -0.872176
v -0.750791 2.214661 -0.861799
v -0.750791 2.337841 -0.851603
v -0.750791 2.415963 -0.826186
v -0.750791 2.455882 -0.779552
v -0.750791 2.430421 -0.697762
v -0.750791 2.308033 -0.554201
v -0.750791 2.221489 -0.484489
v -0.750791 2.177403 -0.517718
v -0.750791 2.112953 -0.614416
v -0.750791 2.042500 -0.700397
v -0.750791 1.962665 -0.776632
v -0.750791 1.937575 -0.825232
v -0.750791 2.009664 -0.847347
v -0.750791 2.113513 -0.858742
v -0.750791 2.243537 -0.725514
v -0.511657 1.171895 -0.562974
v -0.714267 1.348861 -0.849351
v -0.704730 1.649832 -0.803940
v -0.711734 1.854726 -0.723531
v -0.712492 1.996640 -0.588555
v -0.716863 2.177155 -0.144957
v -0.724757 0.043124 -0.124370
v -0.722092 0.157566 -0.360517
v -0.719697 0.342066 -0.553163
v -0.717073 0.555497 -0.691875
v -0.714448 0.778663 -0.784861
v -0.712832 1.027997 -0.837254
v -0.580304 1.153202 -0.680491
v -0.590787 1.616367 -0.588262
v -0.591012 1.772313 -0.470280
v -0.595556 1.881418 -0.309889
v -0.591193 1.924207 -0.106267
v -0.641050 0.142515 -0.099623
v -0.627215 0.241417 -0.289778
v -0.615809 0.378695 -0.440983
v -0.603292 0.536850 -0.548283
v -0.588525 0.710483 -0.625991
v -0.579057 0.912579 -0.671103
v -0.655695 1.828446 -0.600300
v -0.660330 1.961073 -0.457588
v -0.680050 0.135862 -0.224133
v -0.661671 2.051110 -0.250132
v -0.673009 0.273616 -0.421367
v -0.666019 0.452664 -0.568684
v -0.657505 0.646217 -0.672064
v -0.650082 0.857301 -0.741012
v -0.648293 1.109188 -0.770212
v -0.645052 1.396077 -0.752586
v -0.647714 1.638592 -0.696611
v -0.492609 0.988850 -0.544536
v -0.506284 1.537575 -0.383416
v -0.499985 1.593897 -0.243750
v -0.498907 1.629012 -0.081954
v -0.575281 0.210399 -0.078316
v -0.557610 0.290741 -0.229062
v -0.542028 0.393942 -0.349500
v -0.529556 0.508614 -0.437860
v -0.511229 0.640777 -0.501381
v -0.495345 0.798828 -0.535919
v -0.554364 0.596894 -0.528630
v -0.536702 0.761354 -0.585144
v -0.529683 0.960022 -0.608505
v -0.534401 1.168560 -0.607113
v -0.560461 1.480368 -0.589518
v -0.541905 1.586109 -0.480880
v -0.542466 1.708178 -0.351274
v -0.599770 0.219965 -0.176395
v -0.542118 1.773849 -0.184501
v -0.583063 0.327157 -0.331837
v -0.570351 0.454042 -0.445156
v -0.447280 1.008175 -0.443678
v -0.409654 0.785460 -0.389128
v -0.402004 0.883383 -0.357368
v -0.397839 0.957764 -0.321323
v -0.403569 1.174719 -0.170158
v -0.404105 1.201789 -0.057921
v -0.482690 0.289389 -0.054897
v -0.469577 0.340138 -0.161672
v -0.456185 0.408815 -0.250482
v -0.445414 0.484927 -0.317389
v -0.431533 0.572253 -0.363317
v -0.417881 0.671616 -0.388022
v -0.480719 0.546865 -0.406551
v -0.463113 0.664310 -0.448323
v -0.451440 0.806680 -0.464713
v -0.523780 0.277780 -0.132154
v -0.450733 1.403501 -0.141283
v -0.506049 0.356928 -0.250255
v -0.494599 0.445713 -0.339983
v -0.356123 0.696706 -0.303191
v -0.354380 0.775240 -0.287503
v -0.352333 0.846987 -0.252967
v -0.348300 0.901729 -0.199467
v -0.343317 0.926760 -0.128379
v -0.341339 0.936278 -0.043710
v -0.403467 0.353635 -0.041647
v -0.395415 0.384645 -0.123162
v -0.385684 0.431594 -0.192063
v -0.376415 0.488120 -0.245025
v -0.367652 0.552692 -0.281310
v -0.360610 0.622065 -0.300860
v -0.436897 0.339829 -0.094587
v -0.371689 1.015605 -0.186839
v -0.369257 1.039387 -0.099367
v -0.424486 0.390182 -0.180291
v -0.414343 0.449919 -0.248790
v -0.403278 0.519357 -0.298382
v -0.392266 0.596496 -0.329390
v -0.383315 0.681871 -0.341770
v -0.379472 0.774798 -0.333569
v -0.378465 0.870203 -0.305971
v -0.296558 0.663262 -0.216855
v -0.294715 0.710742 -0.204739
v -0.292678 0.752103 -0.179081
v -0.290198 0.781760 -0.140404
v -0.287755 0.798698 -0.090403
v -0.286542 0.806284 -0.030610
v -0.318840 0.437321 -0.029454
v -0.314721 0.454053 -0.087491
v -0.309475 0.483775 -0.136451
v -0.304480 0.523403 -0.174797
v -0.300829 0.568429 -0.201399
v -0.298489 0.615232 -0.215602
v -0.720871 2.145535 -0.365861
v -0.751337 1.572369 -0.875696
v -0.751337 2.211758 -0.280696
v -0.751337 0.079331 -0.251603
v -0.751337 0.236561 -0.473775
v -0.751337 0.448231 -0.644548
v -0.751337 0.672250 -0.761213
v -0.751337 0.910681 -0.834521
v -0.751337 1.193699 -0.866143
v -0.370295 0.936976 -0.251513
v -0.586732 1.480683 -0.641284
v -0.489489 1.432998 -0.410266
v -0.414203 0.973521 -0.363103
v -0.511064 1.461605 -0.469869
v -0.380354 1.023871 -0.226220
v -0.448356 1.313650 -0.297256
v -0.566081 1.445158 -0.611097
v -0.522226 1.202798 -0.580959
v -0.530803 1.229615 -0.592465
v -0.552921 1.299421 -0.620532
v -0.428750 1.022330 -0.390657
v -0.466594 1.045406 -0.481976
v -0.531521 1.438295 -0.535555
v -0.580427 1.440930 -0.639909
v -0.466687 1.079972 -0.474828
v -0.471078 1.371799 -0.374510
v -0.460376 1.339942 -0.342083
v -0.751337 2.314950 -0.904630
v -0.751337 2.489061 -0.851993
v -0.751337 2.552860 -0.763052
v -0.751337 2.428962 -0.570441
v -0.751337 2.010053 -0.912845
v -0.751337 2.155603 -0.918574
v -0.741186 2.283928 -0.869601
v -0.740591 2.395912 -0.846347
v -0.741313 2.449651 -0.815931
v -0.741186 2.477962 -0.750418
v -0.741186 2.386985 -0.612691
v -0.741186 2.256811 -0.471895
v -0.741186 2.193672 -0.454790
v -0.741186 2.066858 -0.650929
v -0.741314 1.971334 -0.747319
v -0.741314 1.919815 -0.799472
v -0.741186 1.936338 -0.850297
v -0.741186 2.046821 -0.867460
v -0.741186 2.157562 -0.874794
v -0.744222 2.467225 -0.782829
v -0.744222 2.030863 -0.699496
v -0.744318 2.424156 -0.830601
v -0.744222 2.105764 -0.606570
v -0.744222 2.343009 -0.857140
v -0.744222 2.171924 -0.498541
v -0.744222 2.213260 -0.868802
v -0.744222 2.218778 -0.460235
v -0.744222 2.106673 -0.866061
v -0.744222 2.311682 -0.539454
v -0.744222 1.994761 -0.855230
v -0.744222 2.440760 -0.695640
v -0.744318 1.943442 -0.780119
v -0.744222 1.912189 -0.830295
v -0.741707 1.767826 -0.890202
v -0.751337 2.257844 -0.368787
v -0.750791 2.277366 -0.858446
v -0.750791 2.383197 -0.841222
v -0.750791 2.440852 -0.805477
v -0.750791 2.455984 -0.747040
v -0.750791 2.373834 -0.626190
v -0.750791 2.256407 -0.505598
v -0.750791 2.198892 -0.489585
v -0.750791 2.079022 -0.659474
v -0.750791 2.000883 -0.740499
v -0.750791 1.938612 -0.804943
v -0.750791 1.964380 -0.838555
v -0.750791 2.061704 -0.853923
v -0.750791 2.161967 -0.861639
v -0.371910 0.980463 -0.226661
v -0.739885 1.890098 -0.830044
v -0.740114 2.406162 -0.882157
v -0.749843 2.341157 -0.856155
v -0.740114 2.223627 -0.910936
v -0.749843 2.213253 -0.867218
v -0.749843 2.422766 -0.830034
v -0.740114 2.533548 -0.810108
v -0.749843 2.464984 -0.781861
v -0.740114 2.510202 -0.687906
v -0.749843 2.438309 -0.696026
v -0.740114 2.328447 -0.461018
v -0.749843 2.310953 -0.542574
v -0.749843 2.218598 -0.462367
v -0.738472 2.212964 -0.355924
v -0.749843 2.172266 -0.500701
v -0.737978 2.160811 -0.426086
v -0.749843 2.106870 -0.608056
v -0.736508 2.088023 -0.549044
v -0.749843 2.033380 -0.699602
v -0.736259 1.986208 -0.683341
v -0.749843 1.945901 -0.780181
v -0.749843 1.915683 -0.829561
v -0.738902 1.818053 -0.846683
v -0.740114 1.921700 -0.898553
v -0.749843 1.997516 -0.853569
v -0.740114 2.091994 -0.912799
v -0.749843 2.107768 -0.864380
v -0.735777 1.816348 -0.817084
v -0.684384 0.090068 -0.113034
v -0.661873 0.548046 -0.625003
v -0.653354 0.748418 -0.711102
v -0.648314 0.976127 -0.760546
v -0.646842 1.559182 -0.714940
v -0.654795 1.743287 -0.658474
v -0.656443 1.898064 -0.533124
v -0.673285 2.036098 -0.369257
v -0.676345 0.197596 -0.328081
v -0.657118 2.064506 -0.126625
v -0.669670 0.360043 -0.501335
v -0.544963 0.675530 -0.560748
v -0.531155 1.069052 -0.609974
v -0.531469 0.856282 -0.600767
v -0.539716 1.492830 -0.532301
v -0.542053 1.653979 -0.421247
v -0.608201 0.179264 -0.088688
v -0.542510 1.747277 -0.271723
v -0.591053 0.269940 -0.258649
v -0.541634 1.789528 -0.092561
v -0.576570 0.388699 -0.393322
v -0.562998 0.523319 -0.490047
v -0.472112 1.397850 -0.350665
v -0.514774 0.314811 -0.194263
v -0.450579 1.415540 -0.069803
v -0.499817 0.400356 -0.298470
v -0.530695 0.249068 -0.066197
v -0.488384 0.494441 -0.376130
v -0.471832 0.603198 -0.430619
v -0.456058 0.731443 -0.459745
v -0.450456 1.377675 -0.215868
v -0.423608 1.208495 -0.265492
v -0.441250 0.323374 -0.047173
v -0.370099 1.029899 -0.145688
v -0.430843 0.362852 -0.139279
v -0.368780 1.044047 -0.049660
v -0.419210 0.419092 -0.216878
v -0.408968 0.483470 -0.275938
v -0.397670 0.557034 -0.316196
v -0.380939 0.728075 -0.340538
v -0.387247 0.637944 -0.337941
v -0.378927 0.823529 -0.322007
v -0.751337 2.199900 -0.148832
v -0.751337 0.032346 -0.127198
v -0.751337 0.147550 -0.368609
v -0.751337 0.338467 -0.566852
v -0.751337 0.559303 -0.709850
v -0.751337 0.788692 -0.803942
v -0.751337 1.043293 -0.856700
v -0.751337 1.373143 -0.869723
v -0.375121 0.897528 -0.283685
v -0.449191 0.894726 -0.462320
v -0.744222 2.279171 -0.864881
v -0.744222 2.467764 -0.748375
v -0.744246 1.984498 -0.742552
v -0.744246 2.450255 -0.809967
v -0.744222 2.070450 -0.655496
v -0.744246 2.390891 -0.845807
v -0.744222 2.194444 -0.466228
v -0.744222 2.157887 -0.868873
v -0.744222 2.256506 -0.484713
v -0.744222 2.051309 -0.861405
v -0.744222 1.944510 -0.846927
v -0.744246 1.919540 -0.804155
v -0.751337 1.754460 -0.891138
v -0.740275 2.443958 -0.867408
v -0.649212 1.256853 -0.769852
v -0.744222 2.381187 -0.618298
v -0.749843 2.278350 -0.863459
v -0.740114 2.483680 -0.850321
v -0.740114 2.312465 -0.901523
v -0.749843 2.158438 -0.867222
v -0.749843 2.388409 -0.845441
v -0.740114 2.546002 -0.762299
v -0.749843 2.449072 -0.808707
v -0.749843 2.465016 -0.747952
v -0.740114 2.424931 -0.575172
v -0.749843 2.379544 -0.619985
v -0.739834 2.258566 -0.385399
v -0.749843 2.256174 -0.486389
v -0.737465 2.183519 -0.378012
v -0.749843 2.195003 -0.468040
v -0.736296 2.040300 -0.615813
v -0.749843 2.071970 -0.656565
v -0.749843 1.988076 -0.741817
v -0.749843 1.921159 -0.808217
v -0.739094 1.838731 -0.875797
v -0.749843 1.948015 -0.845459
v -0.740114 2.014682 -0.907942
v -0.749843 2.053169 -0.859712
v -0.740114 2.155311 -0.914090
v -0.733440 1.737674 -0.840191
v -0.738356 1.925372 -0.763484
v -0.253488 0.569457 -0.113306
v -0.252760 0.595340 -0.125792
v -0.252157 0.622412 -0.130327
v -0.251514 0.649699 -0.126612
v -0.250842 0.675519 -0.114668
v -0.250239 0.697510 -0.094913
v -0.249802 0.713580 -0.068368
v -0.257347 0.515253 -0.035213
v -0.249581 0.723030 -0.035911
v -0.256005 0.527231 -0.067203
v -0.254620 0.545977 -0.093463
v -0.249653 0.726000 -0.017262
v -0.255428 0.535151 -0.081708
v -0.257928 0.511613 -0.016891
v -0.254138 0.556715 -0.105089
v -0.253216 0.581806 -0.121473
v -0.252586 0.608590 -0.130106
v -0.251300 0.663151 -0.122618
v -0.250647 0.687551 -0.106558
v -0.250121 0.706941 -0.083051
v -0.249784 0.719789 -0.053403
v -0.256846 0.519468 -0.052443
v -0.251968 0.636132 -0.130536
v -0.212632 0.624781 -0.046571
v -0.212793 0.619893 -0.047854
v -0.212853 0.614949 -0.048252
v -0.212400 0.633946 -0.042138
v -0.212562 0.629535 -0.045008
v -0.212199 0.641824 -0.035061
v -0.212339 0.638259 -0.039248
v -0.212064 0.647618 -0.025566
v -0.212170 0.645229 -0.030829
v -0.212004 0.651488 -0.014059
v -0.212071 0.649878 -0.020226
v -0.212036 0.652476 -0.007922
v -0.214585 0.576840 -0.013723
v -0.214783 0.575544 -0.007160
v -0.214135 0.581086 -0.025167
v -0.214422 0.578313 -0.019897
v -0.213673 0.587750 -0.034564
v -0.213948 0.583884 -0.030368
v -0.213298 0.595863 -0.042209
v -0.213519 0.591559 -0.038743
v -0.213056 0.605239 -0.046388
v -0.213214 0.600501 -0.044615
v -0.213004 0.610062 -0.047706
v -0.751337 2.445696 -0.870495
v -0.751337 2.362886 -0.894393
v -0.740114 2.365969 -0.890464
v -0.498935 1.108621 -0.547182
v -0.431590 0.993638 -0.406821
v -0.738269 1.771650 -0.857400
v -0.447829 0.975575 -0.449035
v -0.712851 1.175297 0.843832
v -0.723759 1.581386 0.850909
v -0.708319 1.753825 0.768783
v -0.712190 1.933634 0.653907
v -0.714186 2.050995 0.513898
v -0.727586 2.187159 0.294670
v -0.723313 0.090071 0.242592
v -0.720942 0.243321 0.459819
v -0.718387 0.447778 0.625254
v -0.715750 0.665271 0.739540
v -0.713395 0.898298 0.812545
v -0.578536 1.029152 0.676059
v -0.580444 1.266036 0.666920
v -0.592131 1.543196 0.624061
v -0.590318 1.699626 0.530604
v -0.593101 1.832650 0.392016
v -0.593146 1.908300 0.207615
v -0.633821 0.186302 0.194048
v -0.621270 0.306474 0.367970
v -0.610045 0.455992 0.495238
v -0.595878 0.621376 0.586573
v -0.582513 0.806699 0.649686
v -0.491970 0.890297 0.538595
v -0.509951 1.500913 0.433593
v -0.504101 1.576087 0.314124
v -0.499070 1.614680 0.160469
v -0.567169 0.246174 0.152245
v -0.548627 0.341184 0.290520
v -0.536327 0.449364 0.392797
v -0.521120 0.572219 0.469286
v -0.501933 0.715813 0.518605
v -0.449250 1.340896 0.258839
v -0.413069 0.727963 0.388528
v -0.404652 0.831549 0.370419
v -0.397969 0.926590 0.333369
v -0.399549 1.135760 0.204486
v -0.404368 1.194059 0.112762
v -0.477200 0.310983 0.106073
v -0.461908 0.373900 0.205131
v -0.451219 0.445419 0.282741
v -0.438725 0.527284 0.339243
v -0.424368 0.620153 0.374523
v -0.357948 0.658676 0.300437
v -0.355018 0.735801 0.293872
v -0.353738 0.813268 0.268954
v -0.349730 0.874256 0.223832
v -0.345599 0.917241 0.162165
v -0.341973 0.932986 0.083715
v -0.400009 0.366389 0.079862
v -0.390390 0.406995 0.155699
v -0.381119 0.458526 0.216851
v -0.371823 0.519750 0.261459
v -0.363916 0.586790 0.289419
v -0.297499 0.639121 0.214094
v -0.295639 0.687308 0.208707
v -0.293743 0.732647 0.189814
v -0.291495 0.768583 0.157516
v -0.288903 0.791711 0.112902
v -0.286932 0.803319 0.057854
v -0.317016 0.443950 0.055693
v -0.312129 0.467497 0.109420
v -0.306887 0.502542 0.153262
v -0.302422 0.545604 0.185827
v -0.299574 0.591663 0.206307
v -0.720198 2.123439 0.405271
v -0.384358 0.982657 0.264074
v -0.499932 1.145802 0.540899
v -0.573687 1.392735 0.635213
v -0.482335 1.395740 0.403267
v -0.418666 1.007799 0.355894
v -0.554007 1.445455 0.584423
v -0.446676 1.045804 0.428625
v -0.505914 1.423882 0.469393
v -0.403916 1.136615 0.235664
v -0.400727 0.994344 0.307621
v -0.449091 1.297932 0.309425
v -0.386951 1.054783 0.225638
v -0.581795 1.432890 0.640770
v -0.751337 2.224706 0.911005
v -0.751337 2.409946 0.880561
v -0.751337 2.539745 0.807534
v -0.751337 2.516183 0.683106
v -0.751337 2.330112 0.448832
v -0.751337 1.902245 0.900364
v -0.751337 2.091308 0.913625
v -0.741186 2.214714 0.870567
v -0.741186 2.352635 0.855418
v -0.741930 2.426562 0.826982
v -0.741186 2.473805 0.783491
v -0.741186 2.450032 0.690895
v -0.741186 2.313858 0.525463
v -0.741186 2.218414 0.443349
v -0.741186 2.170914 0.485384
v -0.741186 2.104109 0.595736
v -0.741186 2.022363 0.695768
v -0.741930 1.942622 0.773551
v -0.741186 1.910029 0.826522
v -0.741186 1.987626 0.856860
v -0.741186 2.104753 0.868394
v -0.750791 2.214661 0.858017
v -0.750791 2.337841 0.847821
v -0.750791 2.415963 0.822404
v -0.750791 2.455882 0.775770
v -0.750791 2.430421 0.693980
v -0.750791 2.308033 0.550419
v -0.750791 2.221489 0.480707
v -0.750791 2.177403 0.513936
v -0.750791 2.112953 0.610634
v -0.750791 2.042500 0.696615
v -0.750791 1.962665 0.772850
v -0.750791 1.937575 0.821450
v -0.750791 2.009664 0.843565
v -0.750791 2.113513 0.854960
v -0.750791 2.243537 0.721732
v -0.511657 1.171895 0.559192
v -0.714267 1.348861 0.845569
v -0.704730 1.649832 0.800158
v -0.711734 1.854726 0.719749
v -0.712492 1.996640 0.584772
v -0.716863 2.177155 0.141175
v -0.724757 0.043124 0.120588
v -0.722092 0.157566 0.356735
v -0.719697 0.342066 0.549381
v -0.717073 0.555497 0.688093
v -0.714448 0.778663 0.781079
v -0.712832 1.027997 0.833472
v -0.580304 1.153202 0.676709
v -0.590787 1.616367 0.584480
v -0.591012 1.772313 0.466498
v -0.595556 1.881418 0.306107
v -0.591193 1.924207 0.102485
v -0.641050 0.142515 0.095841
v -0.627215 0.241417 0.285996
v -0.615809 0.378695 0.437201
v -0.603292 0.536850 0.544501
v -0.588525 0.710483 0.622208
v -0.579057 0.912579 0.667321
v -0.655695 1.828446 0.596518
v -0.660330 1.961073 0.453806
v -0.680050 0.135862 0.220351
v -0.661671 2.051110 0.246350
v -0.673009 0.273616 0.417585
v -0.666019 0.452664 0.564902
v -0.657505 0.646217 0.668282
v -0.650082 0.857301 0.737230
v -0.648293 1.109188 0.766430
v -0.645052 1.396077 0.748804
v -0.647714 1.638592 0.692829
v -0.492609 0.988850 0.540754
v -0.506284 1.537575 0.379634
v -0.499985 1.593897 0.239968
v -0.498907 1.629012 0.078172
v -0.575281 0.210399 0.074534
v -0.557610 0.290741 0.225280
v -0.542028 0.393942 0.345718
v -0.529556 0.508614 0.434078
v -0.511229 0.640777 0.497599
v -0.495345 0.798828 0.532137
v -0.554364 0.596894 0.524848
v -0.536702 0.761354 0.581362
v -0.529683 0.960022 0.604723
v -0.534401 1.168560 0.603330
v -0.560461 1.480368 0.585736
v -0.541905 1.586109 0.477098
v -0.542466 1.708178 0.347492
v -0.599770 0.219965 0.172613
v -0.542118 1.773849 0.180719
v -0.583063 0.327157 0.328055
v -0.570351 0.454042 0.441374
v -0.447280 1.008175 0.439895
v -0.409654 0.785460 0.385346
v -0.402004 0.883383 0.353586
v -0.397839 0.957764 0.317541
v -0.403569 1.174719 0.166376
v -0.404105 1.201789 0.054139
v -0.482690 0.289389 0.051115
v -0.469577 0.340138 0.157890
v -0.456185 0.408815 0.246700
v -0.445414 0.484927 0.313607
v -0.431533 0.572253 0.359535
v -0.417881 0.671616 0.384240
v -0.480719 0.546865 0.402769
v -0.463113 0.664310 0.444541
v -0.451440 0.806680 0.460931
v -0.523780 0.277780 0.128372
v -0.450733 1.403501 0.137501
v -0.506049 0.356928 0.246473
v -0.494599 0.445713 0.336201
v -0.356123 0.696706 0.299409
v -0.354380 0.775240 0.283720
v -0.352333 0.846987 0.249185
v -0.348300 0.901729 0.195685
v -0.343317 0.926760 0.124597
v -0.341339 0.936278 0.039928
v -0.403467 0.353635 0.037865
v -0.395415 0.384645 0.119380
v -0.385684 0.431594 0.188281
v -0.376415 0.488120 0.241243
v -0.367652 0.552692 0.277528
v -0.360610 0.622065 0.297078
v -0.436897 0.339829 0.090804
v -0.371689 1.015605 0.183057
v -0.369257 1.039387 0.095585
v -0.424486 0.390182 0.176509
v -0.414343 0.449919 0.245008
v -0.403278 0.519357 0.294600
v -0.392266 0.596496 0.325608
v -0.383315 0.681871 0.337988
v -0.379472 0.774798 0.329787
v -0.378465 0.870203 0.302189
v -0.296558 0.663262 0.213073
v -0.294715 0.710742 0.200957
v -0.292678 0.752103 0.175299
v -0.290198 0.781760 0.136622
v -0.287755 0.798698 0.086621
v -0.286542 0.806284 0.026828
v -0.318840 0.437321 0.025672
v -0.314721 0.454053 0.083709
v -0.309475 0.483775 0.132669
v -0.304480 0.523403 0.171015
v -0.300829 0.568429 0.197617
v -0.298489 0.615232 0.211820
v -0.720871 2.145535 0.362079
v -0.751337 1.572369 0.871914
v -0.751337 2.211758 0.276914
v -0.751337 0.079331 0.247820
v -0.751337 0.236561 0.469993
v -0.751337 0.448231 0.640766
v -0.751337 0.672250 0.757431
v -0.751337 0.910681 0.830739
v -0.751337 1.193699 0.862361
v -0.370295 0.936976 0.247731
v -0.586732 1.480683 0.637502
v -0.489489 1.432998 0.406484
v -0.414203 0.973521 0.359321
v -0.511064 1.461605 0.466086
v -0.380354 1.023871 0.222438
v -0.448356 1.313650 0.293474
v -0.566081 1.445158 0.607315
v -0.522226 1.202798 0.577177
v -0.530803 1.229615 0.588683
v -0.552921 1.299421 0.616750
v -0.428750 1.022330 0.386875
v -0.466594 1.045406 0.478194
v -0.531521 1.438295 0.531772
v -0.580427 1.440930 0.636127
v -0.466687 1.079972 0.471046
v -0.471078 1.371799 0.370728
v -0.460376 1.339942 0.338300
v -0.751337 2.314950 0.900848
v -0.751337 2.489061 0.848211
v -0.751337 2.552860 0.759270
v -0.751337 2.428962 0.566659
v -0.751337 2.010053 0.909063
v -0.751337 2.155603 0.914792
v -0.741186 2.283928 0.865819
v -0.740591 2.395912 0.842565
v -0.741313 2.449651 0.812149
v -0.741186 2.477962 0.746636
v -0.741186 2.386985 0.608909
v -0.741186 2.256811 0.468113
v -0.741186 2.193672 0.451008
v -0.741186 2.066858 0.647147
v -0.741314 1.971334 0.743537
v -0.741314 1.919815 0.795690
v -0.741186 1.936338 0.846515
v -0.741186 2.046821 0.863678
v -0.741186 2.157562 0.871012
v -0.744222 2.467225 0.779047
v -0.744222 2.030863 0.695714
v -0.744318 2.424156 0.826819
v -0.744222 2.105764 0.602788
v -0.744222 2.343009 0.853358
v -0.744222 2.171924 0.494759
v -0.744222 2.213260 0.865020
v -0.744222 2.218778 0.456453
v -0.744222 2.106673 0.862279
v -0.744222 2.311682 0.535672
v -0.744222 1.994761 0.851448
v -0.744222 2.440760 0.691858
v -0.744318 1.943442 0.776337
v -0.744222 1.912189 0.826513
v -0.741707 1.767826 0.886420
v -0.751337 2.257844 0.365005
v -0.750791 2.277366 0.854664
v -0.750791 2.383197 0.837440
v -0.750791 2.440852 0.801695
v -0.750791 2.455984 0.743258
v -0.750791 2.373834 0.622408
v -0.750791 2.256407 0.501816
v -0.750791 2.198892 0.485803
v -0.750791 2.079022 0.655692
v -0.750791 2.000883 0.736717
v -0.750791 1.938612 0.801161
v -0.750791 1.964380 0.834773
v -0.750791 2.061704 0.850141
v -0.750791 2.161967 0.857857
v -0.371910 0.980463 0.222879
v -0.739885 1.890098 0.826262
v -0.740114 2.406162 0.878375
v -0.749843 2.341157 0.852373
v -0.740114 2.223627 0.907154
v -0.749843 2.213253 0.863436
v -0.749843 2.422766 0.826252
v -0.740114 2.533548 0.806326
v -0.749843 2.464984 0.778079
v -0.740114 2.510202 0.684124
v -0.749843 2.438309 0.692244
v -0.740114 2.328447 0.457235
v -0.749843 2.310953 0.538792
v -0.749843 2.218598 0.458585
v -0.738472 2.212964 0.352142
v -0.749843 2.172266 0.496919
v -0.737978 2.160811 0.422304
v -0.749843 2.106870 0.604274
v -0.736508 2.088023 0.545262
v -0.749843 2.033380 0.695819
v -0.736259 1.986208 0.679559
v -0.749843 1.945901 0.776399
v -0.749843 1.915683 0.825779
v -0.738902 1.818053 0.842901
v -0.740114 1.921700 0.894771
v -0.749843 1.997516 0.849787
v -0.740114 2.091994 0.909017
v -0.749843 2.107768 0.860598
v -0.735777 1.816348 0.813302
v -0.684384 0.090068 0.109252
v -0.661873 0.548046 0.621221
v -0.653354 0.748418 0.707320
v -0.648314 0.976127 0.756764
v -0.646842 1.559182 0.711158
v -0.654795 1.743287 0.654692
v -0.656443 1.898064 0.529342
v -0.673285 2.036098 0.365475
v -0.676345 0.197596 0.324298
v -0.657118 2.064506 0.122843
v -0.669670 0.360043 0.497553
v -0.544963 0.675530 0.556966
v -0.531155 1.069052 0.606192
v -0.531469 0.856282 0.596985
v -0.539716 1.492830 0.528519
v -0.542053 1.653979 0.417465
v -0.608201 0.179264 0.084906
v -0.542510 1.747277 0.267941
v -0.591053 0.269940 0.254867
v -0.541634 1.789528 0.088779
v -0.576570 0.388699 0.389540
v -0.562998 0.523319 0.486265
v -0.472112 1.397850 0.346883
v -0.514774 0.314811 0.190481
v -0.450579 1.415540 0.066021
v -0.499817 0.400356 0.294688
v -0.530695 0.249068 0.062415
v -0.488384 0.494441 0.372348
v -0.471832 0.603198 0.426837
v -0.456058 0.731443 0.455963
v -0.450456 1.377675 0.212086
v -0.423608 1.208495 0.261710
v -0.441250 0.323374 0.043390
v -0.370099 1.029899 0.141906
v -0.430843 0.362852 0.135497
v -0.368780 1.044047 0.045878
v -0.419210 0.419092 0.213096
v -0.408968 0.483470 0.272156
v -0.397670 0.557034 0.312414
v -0.380939 0.728075 0.336756
v -0.387247 0.637944 0.334159
v -0.378927 0.823529 0.318225
v -0.751337 2.199900 0.145050
v -0.751337 0.032346 0.123416
v -0.751337 0.147550 0.364827
v -0.751337 0.338467 0.563070
v -0.751337 0.559303 0.706068
v -0.751337 0.788692 0.800160
v -0.751337 1.043293 0.852918
v -0.751337 1.373143 0.865941
v -0.375121 0.897528 0.279903
v -0.449191 0.894726 0.458538
v -0.744222 2.279171 0.861099
v -0.744222 2.467764 0.744593
v -0.744246 1.984498 0.738770
v -0.744246 2.450255 0.806185
v -0.744222 2.070450 0.651714
v -0.744246 2.390891 0.842025
v -0.744222 2.194444 0.462446
v -0.744222 2.157887 0.865091
v -0.744222 2.256506 0.480931
v -0.744222 2.051309 0.857623
v -0.744222 1.944510 0.843145
v -0.744246 1.919540 0.800373
v -0.751337 1.754460 0.887356
v -0.740275 2.443958 0.863626
v -0.649212 1.256853 0.766070
v -0.744222 2.381187 0.614516
v -0.749843 2.278350 0.859677
v -0.740114 2.483680 0.846539
v -0.740114 2.312465 0.897741
v -0.749843 2.158438 0.863440
v -0.749843 2.388409 0.841658
v -0.740114 2.546002 0.758517
v -0.749843 2.449072 0.804925
v -0.749843 2.465016 0.744170
v -0.740114 2.424931 0.571390
v -0.749843 2.379544 0.616203
v -0.739834 2.258566 0.381617
v -0.749843 2.256174 0.482607
v -0.737465 2.183519 0.374230
v -0.749843 2.195003 0.464258
v -0.736296 2.040300 0.612031
v -0.749843 2.071970 0.652783
v -0.749843 1.988076 0.738035
v -0.749843 1.921159 0.804435
v -0.739094 1.838731 0.872015
v -0.749843 1.948015 0.841677
v -0.740114 2.014682 0.904160
v -0.749843 2.053169 0.855930
v -0.740114 2.155311 0.910308
v -0.733440 1.737674 0.836409
v -0.738356 1.925372 0.759702
v -0.253488 0.569457 0.109523
v -0.252760 0.595340 0.122010
v -0.252157 0.622412 0.126545
v -0.251514 0.649699 0.122830
v -0.250842 0.675519 0.110886
v -0.250239 0.697510 0.091131
v -0.249802 0.713580 0.064586
v -0.257347 0.515253 0.031431
v -0.249581 0.723030 0.032129
v -0.256005 0.527231 0.063421
v -0.254620 0.545977 0.089681
v -0.249653 0.726000 0.013480
v -0.255428 0.535151 0.077926
v -0.257928 0.511613 0.013109
v -0.254138 0.556715 0.101307
v -0.253216 0.581806 0.117691
v -0.252586 0.608590 0.126324
v -0.251300 0.663151 0.118836
v -0.250647 0.687551 0.102776
v -0.250121 0.706941 0.079269
v -0.249784 0.719789 0.049621
v -0.256846 0.519468 0.048661
v -0.251968 0.636132 0.126754
v -0.212632 0.624781 0.042789
v -0.212793 0.619893 0.044072
v -0.212853 0.614949 0.044470
v -0.212400 0.633946 0.038356
v -0.212562 0.629535 0.041226
v -0.212199 0.641824 0.031279
v -0.212339 0.638259 0.035466
v -0.212064 0.647618 0.021784
v -0.212170 0.645229 0.027047
v -0.212004 0.651488 0.010277
v -0.212071 0.649878 0.016444
v -0.212036 0.652476 0.004140
v -0.214585 0.576840 0.009941
v -0.214783 0.575544 0.003378
v -0.214135 0.581086 0.021385
v -0.214422 0.578313 0.016115
v -0.213673 0.587750 0.030782
v -0.213948 0.583884 0.026586
v -0.213298 0.595863 0.038426
v -0.213519 0.591559 0.034961
v -0.213056 0.605239 0.042606
v -0.213214 0.600501 0.040832
v -0.213004 0.610062 0.043924
v -0.751337 2.445696 0.866713
v -0.751337 2.362886 0.890611
v -0.740114 2.365969 0.886682
v -0.498935 1.108621 0.543400
v -0.431590 0.993638 0.403039
v -0.738269 1.771650 0.853618
v -0.447829 0.975575 0.445253
vn 0.5854 -0.7333 -0.3456
vn 0.7649 -0.5870 -0.2652
vn 0.7641 -0.6233 -0.1663
vn 0.5677 -0.7982 -0.2017
vn 0.7622 -0.5943 -0.2565
vn 0.7638 -0.6206 -0.1773
vn 0.7666 -0.6421 -0.0000
vn 0.7613 -0.6484 -0.0000
vn 0.5463 -0.8376 -0.0000
vn 0.5433 -0.3313 -0.7714
vn 0.7031 -0.3066 -0.6415
vn 0.7069 -0.3580 -0.6100
vn 0.5448 -0.3980 -0.7380
vn 0.7075 -0.3344 -0.6225
vn 0.7096 -0.3835 -0.5911
vn 0.7164 -0.4271 -0.5516
vn 0.7130 -0.4062 -0.5715
vn 0.5467 -0.4627 -0.6978
vn 0.5596 -0.1759 -0.8099
vn 0.7238 -0.1627 -0.6706
vn 0.7072 -0.2424 -0.6641
vn 0.5459 -0.2590 -0.7968
vn 0.7446 -0.1773 -0.6436
vn 0.7186 -0.2666 -0.6423
vn 0.6109 -0.0282 -0.7912
vn 0.7721 -0.0206 -0.6351
vn 0.7476 -0.0837 -0.6589
vn 0.5821 -0.0954 -0.8075
vn 0.7996 -0.0210 -0.6001
vn 0.7742 -0.0893 -0.6266
vn 0.8621 0.1336 -0.4888
vn 0.8792 0.1791 -0.4416
vn 0.8776 0.1808 -0.4440
vn 0.8592 0.1428 -0.4914
vn 0.8305 0.0718 -0.5524
vn 0.7475 0.0246 -0.6638
vn 0.8848 0.1213 -0.4499
vn 0.8529 0.1282 -0.5061
vn 0.8384 0.1147 -0.5328
vn 0.9071 0.1728 -0.3838
vn 0.9127 0.2884 -0.2894
vn 0.8967 0.2880 -0.3361
vn 0.8919 0.2367 -0.3853
vn 0.9174 0.2274 -0.3266
vn 0.9066 0.2587 -0.3333
vn 0.8965 0.2204 -0.3843
vn 0.9030 0.3658 -0.2255
vn 0.9003 0.3725 -0.2253
vn 0.8987 0.3355 -0.2824
vn 0.9035 0.3355 -0.2666
vn 0.9181 0.3396 -0.2046
vn 0.9142 0.3031 -0.2690
vn 0.9085 0.3762 -0.1819
vn 0.9028 0.3939 -0.1727
vn 0.9221 0.3745 -0.0977
vn 0.9196 0.3633 -0.1495
vn 0.9046 0.4136 -0.1031
vn 0.9216 0.3570 -0.1526
vn 0.8780 0.4786 -0.0013
vn 0.9709 0.2115 -0.1126
vn 0.9757 0.1945 -0.1012
vn 0.5601 -0.6033 -0.5677
vn 0.7344 -0.5087 -0.4493
vn 0.7510 -0.5534 -0.3602
vn 0.5757 -0.6725 -0.4651
vn 0.7358 -0.5248 -0.4280
vn 0.7500 -0.5660 -0.3423
vn 0.6978 0.7163 -0.0000
vn 0.8973 0.4414 -0.0000
vn 0.8993 0.4329 -0.0625
vn 0.7539 0.6557 -0.0417
vn 0.9242 0.3818 -0.0000
vn 0.9235 0.3786 -0.0608
vn 0.7215 -0.4566 -0.5206
vn 0.5504 -0.5311 -0.6442
vn 0.7249 -0.4742 -0.4996
vn 0.7729 -0.1920 -0.6047
vn 0.7357 -0.2873 -0.6133
vn 0.7908 -0.2084 -0.5755
vn 0.7476 -0.3042 -0.5903
vn 0.7158 -0.3799 -0.5859
vn 0.7129 -0.3597 -0.6020
vn 0.8383 0.0630 -0.5416
vn 0.8626 0.0509 -0.5034
vn 0.8537 0.0229 -0.5202
vn 0.8203 0.0268 -0.5713
vn 0.8857 0.0207 -0.4638
vn 0.8992 0.0528 -0.4343
vn 0.9121 0.0557 -0.4061
vn 0.8941 0.0204 -0.4474
vn 0.8625 -0.0349 -0.5049
vn 0.8356 -0.0260 -0.5487
vn 0.8090 -0.0980 -0.5795
vn 0.8315 -0.1120 -0.5441
vn 0.8790 0.1442 -0.4544
vn 0.8966 0.1714 -0.4084
vn 0.8987 0.1520 -0.4113
vn 0.9618 0.1756 -0.2099
vn 0.9584 0.1816 -0.2203
vn 0.9700 0.1895 -0.1524
vn 0.9696 0.1798 -0.1659
vn 0.9276 0.2257 -0.2976
vn 0.9175 0.1879 -0.3506
vn 0.9474 0.2041 -0.2465
vn 0.9370 0.1763 -0.3016
vn 0.9214 0.1582 -0.3551
vn 0.9458 0.2780 -0.1678
vn 0.9393 0.2543 -0.2304
vn 0.9648 0.2234 -0.1385
vn 0.9587 0.2153 -0.1862
vn 0.7267 -0.6331 -0.2666
vn 0.7260 -0.6573 -0.2020
vn 0.6811 -0.6765 -0.2800
vn 0.6828 -0.6953 -0.2242
vn 0.6957 -0.7183 -0.0000
vn 0.7401 -0.6725 -0.0000
vn 0.9516 0.2977 -0.0762
vn 0.9493 0.2919 -0.1168
vn 0.9701 0.2356 -0.0588
vn 0.9687 0.2295 -0.0947
vn 0.7142 -0.5579 -0.4227
vn 0.7199 -0.6029 -0.3438
vn 0.6814 -0.5958 -0.4252
vn 0.6786 -0.6441 -0.3531
vn 0.9538 0.3006 -0.0000
vn 0.9532 0.2986 -0.0472
vn 0.9713 0.2380 -0.0000
vn 0.9708 0.2371 -0.0359
vn 0.7080 -0.4553 -0.5398
vn 0.7112 -0.5037 -0.4904
vn 0.6916 -0.4859 -0.5344
vn 0.6870 -0.5382 -0.4882
vn 0.7064 -0.4114 -0.5759
vn 0.6988 -0.4373 -0.5661
vn 0.9724 0.1985 -0.1230
vn 0.9716 0.1982 -0.1291
vn 0.9704 0.1924 -0.1460
vn 0.9683 0.1946 -0.1565
vn 0.9729 0.1645 -0.1627
vn 0.9346 0.0996 -0.3415
vn 0.9406 0.1070 -0.3222
vn 0.9447 0.1324 -0.3001
vn 0.9411 0.1480 -0.3039
vn 0.6524 -0.6284 -0.4236
vn 0.6489 -0.6734 -0.3541
vn 0.6250 -0.6595 -0.4177
vn 0.6266 -0.6978 -0.3471
vn 0.6349 -0.7249 -0.2673
vn 0.6527 -0.7041 -0.2796
vn 0.9766 0.2151 -0.0000
vn 0.9762 0.2150 -0.0302
vn 0.9769 0.2138 -0.0000
vn 0.9765 0.2141 -0.0262
vn 0.9758 0.2130 -0.0487
vn 0.9755 0.2137 -0.0525
vn 0.6685 -0.5191 -0.5326
vn 0.6597 -0.5740 -0.4852
vn 0.6383 -0.5551 -0.5334
vn 0.6287 -0.6114 -0.4806
vn 0.6651 -0.7130 -0.2221
vn 0.6506 -0.7312 -0.2050
vn 0.6734 -0.7393 -0.0000
vn 0.6892 -0.7246 -0.0000
vn 0.7066 -0.3995 -0.5840
vn 0.6824 -0.4638 -0.5650
vn 0.6835 -0.4209 -0.5964
vn 0.6560 -0.4923 -0.5722
vn 0.7842 -0.2298 -0.5764
vn 0.7418 -0.3218 -0.5884
vn 0.7597 -0.2521 -0.5994
vn 0.7191 -0.3406 -0.6057
vn 0.8629 -0.0474 -0.5031
vn 0.8264 -0.1332 -0.5471
vn 0.8433 -0.0641 -0.5336
vn 0.8021 -0.1573 -0.5761
vn 0.9739 0.2072 -0.0927
vn 0.9741 0.2075 -0.0896
vn 0.9403 0.1572 -0.3019
vn 0.9683 0.1635 -0.1890
vn 0.9720 0.1797 -0.1511
vn 0.6201 -0.7436 -0.2501
vn 0.6372 -0.7485 -0.1834
vn 0.6559 -0.7250 -0.2100
vn 0.6689 -0.7288 -0.1464
vn 0.6773 -0.7357 -0.0000
vn 0.6569 -0.7540 -0.0000
vn 0.9722 0.2289 -0.0484
vn 0.9708 0.2227 -0.0889
vn 0.9489 0.3102 -0.0585
vn 0.9481 0.3002 -0.1047
vn 0.9445 0.2828 -0.1670
vn 0.9668 0.2101 -0.1455
vn 0.6015 -0.6859 -0.4096
vn 0.6077 -0.7197 -0.3358
vn 0.6432 -0.6715 -0.3679
vn 0.6468 -0.7038 -0.2937
vn 0.9729 0.2311 -0.0000
vn 0.9726 0.2311 -0.0244
vn 0.9488 0.3159 -0.0000
vn 0.9484 0.3156 -0.0301
vn 0.6137 -0.5825 -0.5330
vn 0.6029 -0.6413 -0.4745
vn 0.6578 -0.5681 -0.4945
vn 0.6465 -0.6274 -0.4340
vn 0.6616 -0.4352 -0.6107
vn 0.6337 -0.5127 -0.5793
vn 0.6972 -0.4201 -0.5809
vn 0.6755 -0.4973 -0.5444
vn 0.7340 -0.2626 -0.6264
vn 0.6957 -0.3513 -0.6266
vn 0.7486 -0.2511 -0.6136
vn 0.7217 -0.3376 -0.6043
vn 0.9012 0.0663 -0.4282
vn 0.8770 0.0746 -0.4747
vn 0.8511 0.0104 -0.5249
vn 0.8786 0.0143 -0.4773
vn 0.8507 0.0832 -0.5190
vn 0.8301 0.0130 -0.5574
vn 0.8053 -0.0710 -0.5886
vn 0.8158 -0.0746 -0.5736
vn 0.7749 -0.1694 -0.6089
vn 0.7771 -0.1615 -0.6083
vn 0.9224 0.0768 -0.3785
vn 0.9159 0.0892 -0.3914
vn 0.9154 0.1455 -0.3753
vn 0.8868 0.1829 -0.4245
vn 0.8688 0.1380 -0.4756
vn 0.8957 0.1146 -0.4297
vn 0.9541 0.2035 -0.2199
vn 0.9665 0.1916 -0.1705
vn 0.8054 -0.2857 -0.5193
vn 0.7903 -0.3617 -0.4946
vn 0.8706 0.0876 -0.4841
vn 0.8599 0.0219 -0.5099
vn 0.8475 -0.0521 -0.5283
vn 0.8343 -0.1294 -0.5359
vn 0.8195 -0.2095 -0.5334
vn 0.8912 0.1982 -0.4081
vn 0.8811 0.1459 -0.4498
vn 0.9095 0.2858 -0.3019
vn 0.9012 0.2455 -0.3572
vn 0.9028 0.2188 -0.3702
vn 0.9168 0.2412 -0.3182
vn 0.9197 0.3522 -0.1733
vn 0.9165 0.3199 -0.2402
vn 0.9354 0.2580 -0.2417
vn 0.7394 -0.6564 -0.1496
vn 0.7447 -0.6617 -0.0875
vn 0.7461 -0.6658 -0.0000
vn 0.9180 0.3906 -0.0690
vn 0.9197 0.3749 -0.1168
vn 0.7435 -0.6005 -0.2942
vn 0.7400 -0.6341 -0.2244
vn 0.9163 0.4005 -0.0000
vn 0.9163 0.3982 -0.0430
vn 0.7629 -0.4974 -0.4130
vn 0.7520 -0.5541 -0.3571
vn 0.7766 -0.4311 -0.4593
vn 0.9072 0.4017 -0.1252
vn 0.9289 0.3515 -0.1168
vn 0.9321 0.3284 -0.1528
vn 0.9094 0.3778 -0.1740
vn 0.8384 -0.4250 -0.3413
vn 0.8285 -0.4766 -0.2940
vn 0.8123 -0.5562 -0.1756
vn 0.8976 -0.4238 -0.1214
vn 0.8964 -0.4377 -0.0699
vn 0.8068 -0.5810 -0.1071
vn 0.8038 -0.5934 -0.0417
vn 0.9171 -0.2906 -0.2729
vn 0.8470 -0.3703 -0.3813
vn 0.8580 -0.3048 -0.4135
vn 0.9226 -0.2331 -0.3074
vn 0.9069 -0.3644 -0.2114
vn 0.9051 -0.3911 -0.1666
vn 0.8201 -0.5209 -0.2368
vn 0.8769 -0.1708 -0.4494
vn 0.8671 -0.2380 -0.4375
vn 0.9150 -0.3199 -0.2457
vn 0.9281 -0.1785 -0.3269
vn 0.9108 0.2016 -0.3602
vn 0.9080 0.1453 -0.3928
vn 0.8983 0.0297 -0.4384
vn 0.9384 0.0305 -0.3441
vn 0.9366 -0.0266 -0.3495
vn 0.8923 -0.0343 -0.4502
vn 0.9132 0.3007 -0.2752
vn 0.9136 0.2498 -0.3208
vn 0.9391 0.1262 -0.3197
vn 0.9402 0.0745 -0.3323
vn 0.9035 0.0906 -0.4190
vn 0.9130 0.3397 -0.2259
vn 0.9376 0.2177 -0.2710
vn 0.9405 0.1695 -0.2946
vn 0.9030 0.4226 -0.0774
vn 0.9335 0.2998 -0.1967
vn 0.9375 0.2583 -0.2334
vn 0.8926 -0.4501 -0.0265
vn 0.8913 -0.4534 -0.0000
vn 0.8051 -0.5931 -0.0000
vn 0.5572 0.8303 -0.0137
vn 0.4607 0.8875 -0.0000
vn 0.7527 0.6485 0.1133
vn 0.3551 -0.9068 -0.2274
vn 0.3927 -0.8299 -0.3963
vn 0.3199 -0.9475 -0.0000
vn 0.3892 -0.7527 -0.5310
vn 0.3753 -0.6673 -0.6434
vn 0.3690 -0.5803 -0.7261
vn 0.3691 -0.5012 -0.7827
vn 0.3712 -0.4236 -0.8263
vn 0.3706 -0.3491 -0.8607
vn 0.3745 -0.2666 -0.8881
vn 0.3870 -0.1814 -0.9041
vn 0.4103 -0.0939 -0.9071
vn 0.4410 -0.0293 -0.8970
vn 0.6553 0.0064 -0.7554
vn 0.5098 -0.0107 -0.8602
vn 0.5411 -0.0441 -0.8398
vn 0.8706 0.0571 -0.4886
vn 0.8845 0.0532 -0.4635
vn 0.9369 0.1575 -0.3121
vn 0.9267 0.1689 -0.3358
vn 0.9316 0.1268 -0.3406
vn 0.9367 0.1616 -0.3105
vn 0.9372 0.1831 -0.2970
vn 0.9187 0.0685 -0.3890
vn 0.9220 0.0736 -0.3801
vn 0.9271 0.0920 -0.3634
vn 0.8942 0.0627 -0.4432
vn 0.9510 0.2601 -0.1671
vn 0.9635 0.2254 -0.1441
vn 0.9655 0.2213 -0.1369
vn 0.9890 0.0898 -0.1175
vn 0.9947 0.0021 -0.1031
vn 0.9614 0.2718 0.0419
vn 0.9658 -0.0103 0.2590
vn 0.9555 -0.0343 0.2931
vn 0.5983 -0.0719 0.7981
vn 0.6257 -0.0236 0.7797
vn 0.9257 -0.0942 0.3663
vn 0.5465 -0.1455 0.8247
vn 0.6337 -0.5774 0.5147
vn 0.7458 -0.5024 0.4374
vn 0.7219 -0.3576 0.5924
vn 0.4374 -0.4532 0.7767
vn 0.7119 -0.1165 0.6925
vn 0.7256 -0.0594 0.6855
vn 0.6234 0.6496 -0.4352
vn 0.6264 0.6542 -0.4239
vn 0.9528 0.2377 -0.1889
vn 0.9642 0.2105 -0.1615
vn 0.8447 0.4539 0.2837
vn 0.9847 -0.1496 -0.0896
vn 0.9894 -0.1438 -0.0195
vn 0.8241 0.5623 0.0686
vn 0.9728 0.0233 0.2304
vn 0.9702 0.0400 0.2388
vn 0.8912 -0.0352 -0.4522
vn 0.8513 -0.0369 -0.5234
vn 0.9839 -0.1618 0.0765
vn 0.8129 0.4729 -0.3398
vn 0.9718 0.0160 0.2354
vn 0.8367 -0.0209 -0.5473
vn 0.9785 -0.0083 -0.2062
vn 0.9986 0.0430 -0.0294
vn 0.9983 0.0323 -0.0475
vn 0.9696 0.0055 0.2447
vn 0.8277 0.0089 -0.5611
vn 0.9898 -0.0839 -0.1154
vn 0.9167 0.3196 0.2398
vn 0.8207 -0.0454 -0.5695
vn 0.7517 -0.0374 -0.6584
vn 0.8189 0.0454 -0.5721
vn 0.9850 -0.1247 -0.1194
vn 0.8792 0.3621 0.3097
vn 0.8114 0.2221 -0.5406
vn 0.9169 -0.2107 0.3389
vn 0.8930 -0.1707 0.4164
vn 0.7918 0.1692 -0.5868
vn 0.7683 -0.6239 -0.1429
vn 0.7425 -0.6373 0.2060
vn 0.7301 -0.5769 -0.3663
vn 0.4502 -0.2919 0.8438
vn 0.7065 -0.2159 0.6739
vn 0.7803 -0.5259 -0.3386
vn 0.7710 -0.6166 -0.1595
vn 0.9525 0.2145 -0.2161
vn 0.9397 0.2347 -0.2489
vn 0.6370 0.5227 -0.5666
vn 0.6458 0.5445 -0.5352
vn 0.9174 0.2811 -0.2818
vn 0.6047 0.5620 -0.5643
vn 0.7935 0.4265 -0.4341
vn 0.7746 0.4294 -0.4644
vn 0.9505 -0.2007 0.2371
vn 0.7254 -0.5310 -0.4381
vn 0.7959 -0.4669 -0.3855
vn 0.7637 -0.6218 0.1734
vn 0.6407 0.5963 -0.4836
vn 0.6630 0.0725 0.7451
vn 0.7667 0.0620 0.6390
vn 0.7782 0.0832 0.6225
vn 0.6685 0.1033 0.7365
vn 0.7796 0.4490 -0.4365
vn 0.7814 0.4856 -0.3920
vn 0.6414 0.0206 0.7669
vn 0.7448 0.0184 0.6671
vn 0.7558 0.0458 0.6532
vn 0.6529 0.0526 0.7556
vn 0.9655 0.1914 -0.1766
vn 0.7790 0.5211 -0.3488
vn 0.7514 0.4017 -0.5234
vn 0.8080 -0.1029 -0.5801
vn 0.7682 0.5371 -0.3484
vn 0.7367 0.3936 -0.5499
vn 0.7360 -0.0194 0.6767
vn 0.7283 -0.4336 -0.5307
vn 0.7236 -0.5035 -0.4721
vn 0.7404 -0.1164 -0.6620
vn 0.7769 -0.3988 -0.4872
vn 0.6807 0.2404 0.6920
vn 0.7829 0.1714 0.5980
vn 0.7811 0.5566 0.2829
vn 0.6753 0.6999 0.2326
vn 0.9994 0.0267 0.0226
vn 1.0000 -0.0000 -0.0000
vn 0.9990 0.0367 -0.0243
vn 0.9988 -0.0357 -0.0332
vn 0.9983 -0.0443 -0.0368
vn 0.9600 0.2786 0.0269
vn 0.9652 0.1254 0.2295
vn 0.5144 0.7618 -0.3937
vn 0.8088 0.5312 -0.2524
vn 0.9023 0.3447 -0.2589
vn 0.4825 -0.0890 -0.8713
vn 0.9956 -0.0078 0.0932
vn 0.9960 -0.0029 0.0896
vn 0.9970 -0.0374 0.0673
vn 0.9979 -0.0471 0.0442
vn 0.9980 0.0429 -0.0455
vn 0.9980 0.0461 -0.0431
vn 0.9979 0.0082 0.0637
vn 0.9986 0.0118 0.0507
vn 0.9987 0.0417 -0.0291
vn 0.9982 0.0465 -0.0372
vn 0.9984 0.0390 -0.0406
vn 0.9982 -0.0571 0.0159
vn 0.9979 -0.0616 -0.0191
vn 0.9954 -0.0145 0.0943
vn 0.9996 -0.0081 -0.0283
vn 0.9993 -0.0255 -0.0288
vn 0.9828 -0.1427 -0.1175
vn 0.8598 0.4001 0.3172
vn 0.3595 0.5002 -0.7877
vn 0.8037 0.2883 -0.5205
vn 0.3016 0.3609 -0.8825
vn 0.8065 0.0901 -0.5844
vn 0.9969 0.0052 0.0791
vn 0.9973 0.0069 0.0728
vn 0.9964 0.0017 0.0849
vn 0.9992 0.0338 -0.0222
vn 0.9995 0.0212 -0.0239
vn 0.9979 -0.0533 -0.0357
vn 0.9959 -0.0254 0.0868
vn 0.8055 0.1195 -0.5804
vn 0.2785 0.1975 -0.9399
vn 0.2981 0.1551 -0.9418
vn 0.7973 0.0236 -0.6031
vn 0.8019 -0.4373 -0.4071
vn 0.4737 0.7526 -0.4574
vn 0.2835 0.2855 -0.9155
vn 0.3292 0.0765 -0.9412
vn 0.4603 0.7633 0.4532
vn 0.5088 0.8586 0.0625
vn 0.5660 0.6218 0.5413
vn 0.4767 0.6869 0.5485
vn 0.8153 0.4937 0.3025
vn 0.3885 -0.0366 -0.9207
vn 0.4553 -0.0689 -0.8877
vn 0.3630 0.0151 -0.9317
vn 0.9932 0.0424 -0.1081
vn 0.9631 0.1009 -0.2496
vn 0.9727 0.1066 -0.2062
vn 0.9716 0.1584 -0.1760
vn 0.9373 0.1761 -0.3008
vn 0.8519 0.0762 -0.5181
vn 0.8452 0.0889 -0.5271
vn 0.8583 0.0697 -0.5085
vn 0.9675 0.1921 -0.1645
vn 0.9999 -0.0138 -0.0000
vn 0.9026 0.4306 -0.0000
vn 0.9015 0.4289 -0.0575
vn 0.9253 0.3754 -0.0535
vn 0.9269 0.3679 -0.0743
vn 0.9319 -0.1305 -0.3384
vn 0.9279 0.3729 -0.0000
vn 0.8844 -0.1046 -0.4549
vn 0.9342 -0.0849 -0.3466
vn 0.5854 -0.7333 0.3456
vn 0.5677 -0.7982 0.2017
vn 0.7641 -0.6233 0.1663
vn 0.7649 -0.5870 0.2652
vn 0.7638 -0.6206 0.1773
vn 0.7622 -0.5943 0.2565
vn 0.5433 -0.3313 0.7714
vn 0.5448 -0.3980 0.7380
vn 0.7069 -0.3580 0.6100
vn 0.7031 -0.3066 0.6415
vn 0.7096 -0.3835 0.5911
vn 0.7075 -0.3344 0.6225
vn 0.7130 -0.4062 0.5715
vn 0.7164 -0.4271 0.5516
vn 0.5467 -0.4627 0.6978
vn 0.5596 -0.1759 0.8099
vn 0.5459 -0.2590 0.7968
vn 0.7072 -0.2424 0.6641
vn 0.7238 -0.1627 0.6706
vn 0.7186 -0.2666 0.6423
vn 0.7446 -0.1773 0.6436
vn 0.6109 -0.0282 0.7912
vn 0.5821 -0.0954 0.8075
vn 0.7476 -0.0837 0.6589
vn 0.7721 -0.0206 0.6351
vn 0.7742 -0.0893 0.6266
vn 0.7996 -0.0210 0.6001
vn 0.8621 0.1336 0.4888
vn 0.8592 0.1428 0.4914
vn 0.8776 0.1808 0.4440
vn 0.8792 0.1791 0.4416
vn 0.8305 0.0718 0.5524
vn 0.8848 0.1213 0.4499
vn 0.7475 0.0246 0.6638
vn 0.8384 0.1147 0.5328
vn 0.8529 0.1282 0.5061
vn 0.9071 0.1728 0.3838
vn 0.9127 0.2884 0.2894
vn 0.9174 0.2274 0.3266
vn 0.8919 0.2367 0.3853
vn 0.8967 0.2880 0.3361
vn 0.8965 0.2204 0.3843
vn 0.9066 0.2587 0.3333
vn 0.9030 0.3658 0.2255
vn 0.9035 0.3355 0.2666
vn 0.8987 0.3355 0.2824
vn 0.9003 0.3725 0.2253
vn 0.9142 0.3031 0.2690
vn 0.9181 0.3396 0.2046
vn 0.9028 0.3939 0.1727
vn 0.9085 0.3762 0.1819
vn 0.9221 0.3745 0.0977
vn 0.9046 0.4136 0.1031
vn 0.9196 0.3633 0.1495
vn 0.8780 0.4786 0.0013
vn 0.9216 0.3570 0.1526
vn 0.9757 0.1945 0.1012
vn 0.9709 0.2115 0.1126
vn 0.5601 -0.6033 0.5677
vn 0.5757 -0.6725 0.4651
vn 0.7510 -0.5534 0.3602
vn 0.7344 -0.5087 0.4493
vn 0.7500 -0.5660 0.3423
vn 0.7358 -0.5248 0.4280
vn 0.7539 0.6557 0.0417
vn 0.8993 0.4329 0.0625
vn 0.9235 0.3786 0.0608
vn 0.5504 -0.5311 0.6442
vn 0.7215 -0.4566 0.5206
vn 0.7249 -0.4742 0.4996
vn 0.7357 -0.2873 0.6133
vn 0.7729 -0.1920 0.6047
vn 0.7476 -0.3042 0.5903
vn 0.7908 -0.2084 0.5755
vn 0.7129 -0.3597 0.6020
vn 0.7158 -0.3799 0.5859
vn 0.8383 0.0630 0.5416
vn 0.8203 0.0268 0.5713
vn 0.8537 0.0229 0.5202
vn 0.8626 0.0509 0.5034
vn 0.8857 0.0207 0.4638
vn 0.8941 0.0204 0.4474
vn 0.9121 0.0557 0.4061
vn 0.8992 0.0528 0.4343
vn 0.8356 -0.0260 0.5487
vn 0.8625 -0.0349 0.5049
vn 0.8090 -0.0980 0.5795
vn 0.8315 -0.1120 0.5441
vn 0.8790 0.1442 0.4544
vn 0.8987 0.1520 0.4113
vn 0.8966 0.1714 0.4084
vn 0.9618 0.1756 0.2099
vn 0.9696 0.1798 0.1659
vn 0.9700 0.1895 0.1524
vn 0.9584 0.1816 0.2203
vn 0.9175 0.1879 0.3506
vn 0.9276 0.2257 0.2976
vn 0.9474 0.2041 0.2465
vn 0.9370 0.1763 0.3016
vn 0.9214 0.1582 0.3551
vn 0.9393 0.2543 0.2304
vn 0.9458 0.2780 0.1678
vn 0.9587 0.2153 0.1862
vn 0.9648 0.2234 0.1385
vn 0.7260 -0.6573 0.2020
vn 0.7267 -0.6331 0.2666
vn 0.6828 -0.6953 0.2242
vn 0.6811 -0.6765 0.2800
vn 0.9493 0.2919 0.1168
vn 0.9516 0.2977 0.0762
vn 0.9687 0.2295 0.0947
vn 0.9701 0.2356 0.0588
vn 0.7199 -0.6029 0.3438
vn 0.7142 -0.5579 0.4227
vn 0.6786 -0.6441 0.3531
vn 0.6814 -0.5958 0.4252
vn 0.9532 0.2986 0.0472
vn 0.9708 0.2371 0.0359
vn 0.7112 -0.5037 0.4904
vn 0.7080 -0.4553 0.5398
vn 0.6870 -0.5382 0.4882
vn 0.6916 -0.4859 0.5344
vn 0.7064 -0.4114 0.5759
vn 0.6988 -0.4373 0.5661
vn 0.9724 0.1985 0.1230
vn 0.9683 0.1946 0.1565
vn 0.9704 0.1924 0.1460
vn 0.9716 0.1982 0.1291
vn 0.9729 0.1645 0.1627
vn 0.9346 0.0996 0.3415
vn 0.9411 0.1480 0.3039
vn 0.9447 0.1324 0.3001
vn 0.9406 0.1070 0.3222
vn 0.6489 -0.6734 0.3541
vn 0.6524 -0.6284 0.4236
vn 0.6266 -0.6978 0.3471
vn 0.6250 -0.6595 0.4177
vn 0.6527 -0.7041 0.2796
vn 0.6349 -0.7249 0.2673
vn 0.9762 0.2150 0.0302
vn 0.9765 0.2141 0.0262
vn 0.9755 0.2137 0.0525
vn 0.9758 0.2130 0.0487
vn 0.6597 -0.5740 0.4852
vn 0.6685 -0.5191 0.5326
vn 0.6287 -0.6114 0.4806
vn 0.6383 -0.5551 0.5334
vn 0.6651 -0.7130 0.2221
vn 0.6506 -0.7312 0.2050
vn 0.6824 -0.4638 0.5650
vn 0.7066 -0.3995 0.5840
vn 0.6560 -0.4923 0.5722
vn 0.6835 -0.4209 0.5964
vn 0.7418 -0.3218 0.5884
vn 0.7842 -0.2298 0.5764
vn 0.7191 -0.3406 0.6057
vn 0.7597 -0.2521 0.5994
vn 0.8264 -0.1332 0.5471
vn 0.8629 -0.0474 0.5031
vn 0.8021 -0.1573 0.5761
vn 0.8433 -0.0641 0.5336
vn 0.9739 0.2072 0.0927
vn 0.9741 0.2075 0.0896
vn 0.9403 0.1572 0.3019
vn 0.9683 0.1635 0.1890
vn 0.9720 0.1797 0.1511
vn 0.6372 -0.7485 0.1834
vn 0.6201 -0.7436 0.2501
vn 0.6689 -0.7288 0.1464
vn 0.6559 -0.7250 0.2100
vn 0.9708 0.2227 0.0889
vn 0.9722 0.2289 0.0484
vn 0.9481 0.3002 0.1047
vn 0.9489 0.3102 0.0585
vn 0.9668 0.2101 0.1455
vn 0.9445 0.2828 0.1670
vn 0.6077 -0.7197 0.3358
vn 0.6015 -0.6859 0.4096
vn 0.6468 -0.7038 0.2937
vn 0.6432 -0.6715 0.3679
vn 0.9726 0.2311 0.0244
vn 0.9484 0.3156 0.0301
vn 0.6029 -0.6413 0.4745
vn 0.6137 -0.5825 0.5330
vn 0.6465 -0.6274 0.4340
vn 0.6578 -0.5681 0.4945
vn 0.6337 -0.5127 0.5793
vn 0.6616 -0.4352 0.6107
vn 0.6755 -0.4973 0.5444
vn 0.6972 -0.4201 0.5809
vn 0.6957 -0.3513 0.6266
vn 0.7340 -0.2626 0.6264
vn 0.7217 -0.3376 0.6043
vn 0.7486 -0.2511 0.6136
vn 0.9012 0.0663 0.4282
vn 0.8786 0.0143 0.4773
vn 0.8511 0.0104 0.5249
vn 0.8770 0.0746 0.4747
vn 0.8301 0.0130 0.5574
vn 0.8507 0.0832 0.5190
vn 0.8158 -0.0746 0.5736
vn 0.8053 -0.0710 0.5886
vn 0.7749 -0.1694 0.6089
vn 0.7771 -0.1615 0.6083
vn 0.9159 0.0892 0.3914
vn 0.9224 0.0768 0.3785
vn 0.9154 0.1455 0.3753
vn 0.8957 0.1146 0.4297
vn 0.8688 0.1380 0.4756
vn 0.8868 0.1829 0.4245
vn 0.9665 0.1916 0.1705
vn 0.9541 0.2035 0.2199
vn 0.7903 -0.3617 0.4946
vn 0.8054 -0.2857 0.5193
vn 0.8706 0.0876 0.4841
vn 0.8599 0.0219 0.5099
vn 0.8475 -0.0521 0.5283
vn 0.8343 -0.1294 0.5359
vn 0.8195 -0.2095 0.5334
vn 0.8912 0.1982 0.4081
vn 0.8811 0.1459 0.4498
vn 0.9095 0.2858 0.3019
vn 0.9168 0.2412 0.3182
vn 0.9028 0.2188 0.3702
vn 0.9012 0.2455 0.3572
vn 0.9197 0.3522 0.1733
vn 0.9354 0.2580 0.2417
vn 0.9165 0.3199 0.2402
vn 0.7394 -0.6564 0.1496
vn 0.7447 -0.6617 0.0875
vn 0.9180 0.3906 0.0690
vn 0.9197 0.3749 0.1168
vn 0.7435 -0.6005 0.2942
vn 0.7400 -0.6341 0.2244
vn 0.9163 0.3982 0.0430
vn 0.7629 -0.4974 0.4130
vn 0.7520 -0.5541 0.3571
vn 0.7766 -0.4311 0.4593
vn 0.9072 0.4017 0.1252
vn 0.9094 0.3778 0.1740
vn 0.9321 0.3284 0.1528
vn 0.9289 0.3515 0.1168
vn 0.8384 -0.4250 0.3413
vn 0.8285 -0.4766 0.2940
vn 0.8123 -0.5562 0.1756
vn 0.8068 -0.5810 0.1071
vn 0.8964 -0.4377 0.0699
vn 0.8976 -0.4238 0.1214
vn 0.8038 -0.5934 0.0417
vn 0.9171 -0.2906 0.2729
vn 0.9226 -0.2331 0.3074
vn 0.8580 -0.3048 0.4135
vn 0.8470 -0.3703 0.3813
vn 0.8201 -0.5209 0.2368
vn 0.9051 -0.3911 0.1666
vn 0.9069 -0.3644 0.2114
vn 0.8769 -0.1708 0.4494
vn 0.8671 -0.2380 0.4375
vn 0.9150 -0.3199 0.2457
vn 0.9281 -0.1785 0.3269
vn 0.9108 0.2016 0.3602
vn 0.9080 0.1453 0.3928
vn 0.8983 0.0297 0.4384
vn 0.8923 -0.0343 0.4502
vn 0.9366 -0.0266 0.3495
vn 0.9384 0.0305 0.3441
vn 0.9132 0.3007 0.2752
vn 0.9136 0.2498 0.3208
vn 0.9035 0.0906 0.4190
vn 0.9402 0.0745 0.3323
vn 0.9391 0.1262 0.3197
vn 0.9130 0.3397 0.2259
vn 0.9405 0.1695 0.2946
vn 0.9376 0.2177 0.2710
vn 0.9030 0.4226 0.0774
vn 0.9375 0.2583 0.2334
vn 0.9335 0.2998 0.1967
vn 0.8926 -0.4501 0.0265
vn 0.5572 0.8303 0.0137
vn 0.7527 0.6485 -0.1133
vn 0.3927 -0.8299 0.3963
vn 0.3551 -0.9068 0.2274
vn 0.3753 -0.6673 0.6434
vn 0.3892 -0.7527 0.5310
vn 0.3691 -0.5012 0.7827
vn 0.3690 -0.5803 0.7261
vn 0.3706 -0.3491 0.8607
vn 0.3712 -0.4236 0.8263
vn 0.3870 -0.1814 0.9041
vn 0.3745 -0.2666 0.8881
vn 0.4410 -0.0293 0.8970
vn 0.4103 -0.0939 0.9071
vn 0.5411 -0.0441 0.8398
vn 0.5098 -0.0107 0.8602
vn 0.6553 0.0064 0.7554
vn 0.8706 0.0571 0.4886
vn 0.8845 0.0532 0.4635
vn 0.9369 0.1575 0.3121
vn 0.9316 0.1268 0.3406
vn 0.9267 0.1689 0.3358
vn 0.9367 0.1616 0.3105
vn 0.9372 0.1831 0.2970
vn 0.9271 0.0920 0.3634
vn 0.9220 0.0736 0.3801
vn 0.9187 0.0685 0.3890
vn 0.8942 0.0627 0.4432
vn 0.9510 0.2601 0.1671
vn 0.9655 0.2213 0.1369
vn 0.9635 0.2254 0.1441
vn 0.9890 0.0898 0.1175
vn 0.9614 0.2718 -0.0419
vn 0.9947 0.0021 0.1031
vn 0.9658 -0.0103 -0.2590
vn 0.6257 -0.0236 -0.7797
vn 0.5983 -0.0719 -0.7981
vn 0.9555 -0.0343 -0.2931
vn 0.5465 -0.1455 -0.8247
vn 0.9257 -0.0942 -0.3663
vn 0.6337 -0.5774 -0.5147
vn 0.4374 -0.4532 -0.7767
vn 0.7219 -0.3576 -0.5924
vn 0.7458 -0.5024 -0.4374
vn 0.7256 -0.0594 -0.6855
vn 0.7119 -0.1165 -0.6925
vn 0.6264 0.6542 0.4239
vn 0.6233 0.6496 0.4352
vn 0.9528 0.2377 0.1889
vn 0.9642 0.2105 0.1615
vn 0.8447 0.4539 -0.2837
vn 0.8241 0.5623 -0.0686
vn 0.9894 -0.1438 0.0195
vn 0.9847 -0.1496 0.0896
vn 0.9728 0.0233 -0.2304
vn 0.8513 -0.0369 0.5234
vn 0.8912 -0.0352 0.4522
vn 0.9702 0.0400 -0.2388
vn 0.8129 0.4729 0.3398
vn 0.9839 -0.1618 -0.0765
vn 0.9718 0.0160 -0.2354
vn 0.8367 -0.0209 0.5473
vn 0.9785 -0.0083 0.2062
vn 0.9983 0.0323 0.0475
vn 0.9986 0.0430 0.0294
vn 0.9696 0.0055 -0.2447
vn 0.8277 0.0089 0.5611
vn 0.9167 0.3196 -0.2398
vn 0.9898 -0.0839 0.1154
vn 0.8207 -0.0454 0.5695
vn 0.7517 -0.0374 0.6584
vn 0.8189 0.0454 0.5721
vn 0.8792 0.3621 -0.3097
vn 0.9850 -0.1247 0.1194
vn 0.8114 0.2221 0.5406
vn 0.7918 0.1692 0.5868
vn 0.8930 -0.1707 -0.4164
vn 0.9169 -0.2107 -0.3389
vn 0.7425 -0.6373 -0.2060
vn 0.7683 -0.6239 0.1429
vn 0.7301 -0.5769 0.3663
vn 0.4502 -0.2919 -0.8438
vn 0.7065 -0.2159 -0.6739
vn 0.7710 -0.6166 0.1595
vn 0.7803 -0.5259 0.3386
vn 0.9525 0.2145 0.2161
vn 0.6458 0.5445 0.5352
vn 0.6370 0.5227 0.5666
vn 0.9397 0.2347 0.2489
vn 0.6047 0.5620 0.5643
vn 0.9174 0.2811 0.2818
vn 0.7746 0.4294 0.4644
vn 0.7935 0.4265 0.4341
vn 0.9505 -0.2007 -0.2371
vn 0.7254 -0.5310 0.4381
vn 0.7959 -0.4669 0.3855
vn 0.7637 -0.6218 -0.1734
vn 0.6407 0.5963 0.4836
vn 0.6630 0.0725 -0.7451
vn 0.6685 0.1033 -0.7365
vn 0.7782 0.0832 -0.6225
vn 0.7667 0.0620 -0.6390
vn 0.7813 0.4856 0.3920
vn 0.7796 0.4490 0.4365
vn 0.6414 0.0206 -0.7669
vn 0.6529 0.0526 -0.7556
vn 0.7558 0.0458 -0.6532
vn 0.7448 0.0184 -0.6671
vn 0.9655 0.1914 0.1766
vn 0.7790 0.5211 0.3488
vn 0.8080 -0.1029 0.5801
vn 0.7514 0.4017 0.5235
vn 0.7367 0.3936 0.5499
vn 0.7682 0.5371 0.3484
vn 0.7360 -0.0194 -0.6767
vn 0.7236 -0.5035 0.4721
vn 0.7283 -0.4336 0.5307
vn 0.7404 -0.1164 0.6620
vn 0.7769 -0.3988 0.4872
vn 0.6807 0.2404 -0.6920
vn 0.6753 0.6999 -0.2326
vn 0.7811 0.5566 -0.2829
vn 0.7829 0.1714 -0.5980
vn 0.9994 0.0267 -0.0226
vn 0.9990 0.0367 0.0243
vn 0.9988 -0.0357 0.0332
vn 0.9983 -0.0443 0.0368
vn 0.9600 0.2786 -0.0269
vn 0.9652 0.1254 -0.2295
vn 0.5144 0.7618 0.3937
vn 0.8088 0.5312 0.2525
vn 0.9023 0.3447 0.2589
vn 0.4825 -0.0890 0.8713
vn 0.9956 -0.0078 -0.0932
vn 0.9960 -0.0029 -0.0896
vn 0.9979 -0.0471 -0.0442
vn 0.9970 -0.0374 -0.0673
vn 0.9980 0.0429 0.0454
vn 0.9980 0.0461 0.0431
vn 0.9979 0.0082 -0.0637
vn 0.9986 0.0118 -0.0507
vn 0.9982 0.0465 0.0372
vn 0.9987 0.0417 0.0291
vn 0.9984 0.0390 0.0406
vn 0.9979 -0.0616 0.0191
vn 0.9982 -0.0571 -0.0159
vn 0.9954 -0.0145 -0.0943
vn 0.9996 -0.0081 0.0283
vn 0.9993 -0.0255 0.0288
vn 0.9828 -0.1427 0.1175
vn 0.8598 0.4001 -0.3172
vn 0.3595 0.5002 0.7877
vn 0.3016 0.3609 0.8825
vn 0.8037 0.2883 0.5205
vn 0.8065 0.0901 0.5844
vn 0.9969 0.0052 -0.0791
vn 0.9973 0.0069 -0.0728
vn 0.9964 0.0017 -0.0849
vn 0.9992 0.0338 0.0222
vn 0.9995 0.0212 0.0239
vn 0.9979 -0.0533 0.0357
vn 0.9959 -0.0254 -0.0868
vn 0.8055 0.1195 0.5804
vn 0.2785 0.1975 0.9399
vn 0.2981 0.1551 0.9418
vn 0.7973 0.0236 0.6031
vn 0.8019 -0.4373 0.4071
vn 0.4737 0.7526 0.4574
vn 0.2835 0.2855 0.9155
vn 0.3292 0.0765 0.9412
vn 0.4603 0.7633 -0.4532
vn 0.5088 0.8586 -0.0625
vn 0.5660 0.6218 -0.5413
vn 0.4767 0.6869 -0.5485
vn 0.8153 0.4937 -0.3025
vn 0.3885 -0.0366 0.9207
vn 0.4553 -0.0689 0.8877
vn 0.3630 0.0151 0.9317
vn 0.9932 0.0424 0.1081
vn 0.9727 0.1066 0.2062
vn 0.9631 0.1009 0.2496
vn 0.9716 0.1584 0.1760
vn 0.9373 0.1761 0.3008
vn 0.8519 0.0762 0.5181
vn 0.8452 0.0889 0.5271
vn 0.8583 0.0697 0.5085
vn 0.9675 0.1921 0.1645
vn 0.9015 0.4289 0.0575
vn 0.9269 0.3679 0.0743
vn 0.9253 0.3754 0.0535
vn 0.9319 -0.1305 0.3384
vn 0.8844 -0.1046 0.4549
vn 0.9342 -0.0849 0.3466
vt 0.000000 0.000000
s 1
usemtl mask
f 34/1/1 167/1/2 354/1/3 148/1/4
f 167/1/2 45/1/5 159/1/6 354/1/3
f 354/1/3 159/1/6 11/1/7 14/1/8
f 148/1/4 354/1/3 14/1/8 9/1/9
f 37/1/10 171/1/11 355/1/12 151/1/13
f 171/1/11 48/1/14 162/1/15 355/1/12
f 355/1/12 162/1/15 47/1/16 170/1/17
f 151/1/13 355/1/12 170/1/17 36/1/18
f 38/1/19 172/1/20 356/1/21 152/1/22
f 172/1/20 49/1/23 163/1/24 356/1/21
f 356/1/21 163/1/24 48/1/14 171/1/11
f 152/1/22 356/1/21 171/1/11 37/1/10
f 28/1/25 173/1/26 357/1/27 153/1/28
f 173/1/26 39/1/29 164/1/30 357/1/27
f 357/1/27 164/1/30 49/1/23 172/1/20
f 153/1/28 357/1/27 172/1/20 38/1/19
f 358/1/31 175/1/32 41/1/33 260/1/34
f 174/1/35 29/1/36 144/1/37 358/1/31
f 174/1/35 358/1/31 260/1/34 273/1/38 105/1/39
f 358/1/31 144/1/37 30/1/40 175/1/32
f 31/1/41 165/1/42 359/1/43 145/1/44
f 165/1/42 42/1/45 155/1/46 359/1/43
f 359/1/43 155/1/46 41/1/33 175/1/32
f 145/1/44 359/1/43 175/1/32 30/1/40
f 32/1/47 166/1/48 360/1/49 146/1/50
f 166/1/48 43/1/51 156/1/52 360/1/49
f 360/1/49 156/1/52 42/1/45 165/1/42
f 146/1/50 360/1/49 165/1/42 31/1/41
f 32/1/47 92/1/53 361/1/54 166/1/48
f 44/1/55 157/1/56 361/1/54 168/1/57
f 43/1/51 166/1/48 361/1/54 157/1/56
f 168/1/57 250/1/58 33/1/59
f 92/1/53 341/1/60 434/1/61 250/1/58
f 35/1/62 169/1/63 362/1/64 149/1/65
f 169/1/63 46/1/66 160/1/67 362/1/64
f 362/1/64 160/1/67 45/1/5 167/1/2
f 149/1/65 362/1/64 167/1/2 34/1/1
f 8/1/68 15/1/69 363/1/70 147/1/71
f 15/1/69 10/1/72 158/1/73 363/1/70
f 363/1/70 158/1/73 44/1/55 168/1/57
f 147/1/71 363/1/70 168/1/57 33/1/59
f 36/1/18 170/1/17 364/1/74 150/1/75
f 170/1/17 47/1/16 161/1/76 364/1/74
f 364/1/74 161/1/76 46/1/66 169/1/63
f 150/1/75 364/1/74 169/1/63 35/1/62
f 49/1/23 187/1/77 365/1/78 163/1/24
f 187/1/77 58/1/79 184/1/80 365/1/78
f 365/1/78 184/1/80 57/1/81 186/1/82
f 163/1/24 365/1/78 186/1/82 48/1/14
f 40/1/83 189/1/84 366/1/85 154/1/86
f 176/1/87 496/1/88 499/1/89 405/1/90
f 366/1/85 176/1/87 50/1/91 188/1/92
f 154/1/86 366/1/85 188/1/92 39/1/29
f 39/1/29 188/1/92 367/1/93 164/1/30
f 188/1/92 50/1/91 185/1/94 367/1/93
f 367/1/93 185/1/94 58/1/79 187/1/77
f 164/1/30 367/1/93 187/1/77 49/1/23
f 266/1/95 190/1/96 98/1/97
f 96/1/98 261/1/99 376/1/100 275/1/101
f 42/1/45 191/1/102 368/1/103 155/1/46
f 51/1/104 263/1/105 368/1/103 191/1/102
f 98/1/97 190/1/96 368/1/103 272/1/106
f 41/1/33 155/1/46 368/1/103 190/1/96
f 43/1/51 192/1/107 369/1/108 156/1/52
f 192/1/107 52/1/109 177/1/110 369/1/108
f 369/1/108 177/1/110 51/1/104 191/1/102
f 156/1/52 369/1/108 191/1/102 42/1/45
f 45/1/5 193/1/111 370/1/112 159/1/6
f 193/1/111 54/1/113 180/1/114 370/1/112
f 370/1/112 180/1/114 2/1/115 16/1/116
f 159/1/6 370/1/112 16/1/116 11/1/7
f 44/1/55 194/1/117 371/1/118 157/1/56
f 194/1/117 53/1/119 178/1/120 371/1/118
f 371/1/118 178/1/120 52/1/109 192/1/107
f 157/1/56 371/1/118 192/1/107 43/1/51
f 46/1/66 195/1/121 372/1/122 160/1/67
f 195/1/121 55/1/123 181/1/124 372/1/122
f 372/1/122 181/1/124 54/1/113 193/1/111
f 160/1/67 372/1/122 193/1/111 45/1/5
f 10/1/72 17/1/125 373/1/126 158/1/73
f 17/1/125 1/1/127 179/1/128 373/1/126
f 373/1/126 179/1/128 53/1/119 194/1/117
f 158/1/73 373/1/126 194/1/117 44/1/55
f 47/1/16 196/1/129 374/1/130 161/1/76
f 196/1/129 56/1/131 182/1/132 374/1/130
f 374/1/130 182/1/132 55/1/123 195/1/121
f 161/1/76 374/1/130 195/1/121 46/1/66
f 48/1/14 186/1/82 375/1/133 162/1/15
f 186/1/82 57/1/81 183/1/134 375/1/133
f 375/1/133 183/1/134 56/1/131 196/1/129
f 162/1/15 375/1/133 196/1/129 47/1/16
f 59/1/135 63/1/136 101/1/137 385/1/138
f 275/1/101 376/1/100 276/1/139
f 497/1/140 270/1/141 97/1/142 262/1/143
f 51/1/104 177/1/110 376/1/100 261/1/99
f 55/1/123 214/1/144 377/1/145 181/1/124
f 214/1/144 66/1/146 204/1/147 377/1/145
f 377/1/145 204/1/147 65/1/148 212/1/149
f 181/1/124 377/1/145 212/1/149 54/1/113
f 1/1/127 19/1/150 378/1/151 179/1/128
f 19/1/150 3/1/152 202/1/153 378/1/151
f 378/1/151 202/1/153 64/1/154 213/1/155
f 179/1/128 378/1/151 213/1/155 53/1/119
f 56/1/131 215/1/156 379/1/157 182/1/132
f 215/1/156 67/1/158 205/1/159 379/1/157
f 379/1/157 205/1/159 66/1/146 214/1/144
f 182/1/132 379/1/157 214/1/144 55/1/123
f 54/1/113 212/1/149 380/1/160 180/1/114
f 212/1/149 65/1/148 203/1/161 380/1/160
f 380/1/160 203/1/161 4/1/162 18/1/163
f 180/1/114 380/1/160 18/1/163 2/1/115
f 57/1/81 209/1/164 381/1/165 183/1/134
f 209/1/164 68/1/166 206/1/167 381/1/165
f 381/1/165 206/1/167 67/1/158 215/1/156
f 183/1/134 381/1/165 215/1/156 56/1/131
f 58/1/79 210/1/168 382/1/169 184/1/80
f 210/1/168 69/1/170 207/1/171 382/1/169
f 382/1/169 207/1/171 68/1/166 209/1/164
f 184/1/80 382/1/169 209/1/164 57/1/81
f 50/1/91 211/1/172 383/1/173 185/1/94
f 211/1/172 60/1/174 208/1/175 383/1/173
f 383/1/173 208/1/175 69/1/170 210/1/168
f 185/1/94 383/1/173 210/1/168 58/1/79
f 53/1/119 213/1/155 384/1/176 178/1/120
f 64/1/154 201/1/177 384/1/176 213/1/155
f 52/1/109 178/1/120 384/1/176 59/1/135
f 263/1/105 51/1/104 261/1/99
f 272/1/106 368/1/103 263/1/105 100/1/178
f 59/1/135 384/1/176 201/1/177 63/1/136
f 103/1/179 265/1/180 385/1/138
f 65/1/148 228/1/181 386/1/182 203/1/161
f 228/1/181 76/1/183 222/1/184 386/1/182
f 386/1/182 222/1/184 6/1/185 20/1/186
f 203/1/161 386/1/182 20/1/186 4/1/162
f 64/1/154 230/1/187 387/1/188 201/1/177
f 230/1/187 75/1/189 220/1/190 387/1/188
f 387/1/188 220/1/190 74/1/191 229/1/192
f 201/1/177 387/1/188 229/1/192 63/1/136
f 66/1/146 231/1/193 388/1/194 204/1/147
f 231/1/193 77/1/195 223/1/196 388/1/194
f 388/1/194 223/1/196 76/1/183 228/1/181
f 204/1/147 388/1/194 228/1/181 65/1/148
f 3/1/152 21/1/197 389/1/198 202/1/153
f 21/1/197 5/1/199 221/1/200 389/1/198
f 389/1/198 221/1/200 75/1/189 230/1/187
f 202/1/153 389/1/198 230/1/187 64/1/154
f 67/1/158 232/1/201 390/1/202 205/1/159
f 232/1/201 78/1/203 224/1/204 390/1/202
f 390/1/202 224/1/204 77/1/195 231/1/193
f 205/1/159 390/1/202 231/1/193 66/1/146
f 68/1/166 233/1/205 391/1/206 206/1/167
f 233/1/205 79/1/207 225/1/208 391/1/206
f 391/1/206 225/1/208 78/1/203 232/1/201
f 206/1/167 391/1/206 232/1/201 67/1/158
f 69/1/170 234/1/209 392/1/210 207/1/171
f 234/1/209 80/1/211 226/1/212 392/1/210
f 392/1/210 226/1/212 79/1/207 233/1/205
f 207/1/171 392/1/210 233/1/205 68/1/166
f 61/1/213 236/1/214 393/1/215 198/1/216
f 236/1/214 71/1/217 216/1/218 393/1/215
f 393/1/215 216/1/218 70/1/219 235/1/220
f 198/1/216 393/1/215 235/1/220 60/1/174
f 60/1/174 235/1/220 394/1/221 208/1/175
f 235/1/220 70/1/219 227/1/222 394/1/221
f 394/1/221 227/1/222 80/1/211 234/1/209
f 208/1/175 394/1/221 234/1/209 69/1/170
f 61/1/213 499/1/89 197/1/223 199/1/224
f 237/1/225 72/1/226 217/1/227 395/1/228
f 395/1/228 217/1/227 71/1/217 236/1/214
f 199/1/224 395/1/228 236/1/214 61/1/213
f 229/1/192 325/1/229 264/1/230
f 226/1/212 248/1/231 90/1/232 79/1/207
f 82/1/233 238/1/234 216/1/218 71/1/217
f 216/1/218 238/1/234 81/1/235 70/1/219
f 70/1/219 81/1/235 249/1/236 227/1/222
f 227/1/222 249/1/236 91/1/237 80/1/211
f 83/1/238 239/1/239 217/1/227 72/1/226
f 217/1/227 239/1/239 82/1/233 71/1/217
f 84/1/240 240/1/241 218/1/242 73/1/243
f 218/1/242 240/1/241 83/1/238 72/1/226
f 85/1/244 241/1/245 219/1/246 74/1/191
f 219/1/246 241/1/245 84/1/240 73/1/243
f 87/1/247 244/1/248 222/1/184 76/1/183
f 222/1/184 244/1/248 7/1/249 6/1/185
f 86/1/250 242/1/251 220/1/190 75/1/189
f 220/1/190 242/1/251 85/1/244 74/1/191
f 88/1/252 245/1/253 223/1/196 77/1/195
f 223/1/196 245/1/253 87/1/247 76/1/183
f 12/1/254 243/1/255 221/1/200 5/1/199
f 221/1/200 243/1/255 86/1/250 75/1/189
f 89/1/256 246/1/257 224/1/204 78/1/203
f 224/1/204 246/1/257 88/1/252 77/1/195
f 79/1/207 90/1/232 247/1/258 225/1/208
f 225/1/208 247/1/258 89/1/256 78/1/203
f 467/1/259 480/1/260 477/1/261 453/1/262
f 457/1/263 459/1/264 246/1/257 89/1/256
f 468/1/265 485/1/266 482/1/267 454/1/268
f 454/1/268 460/1/269 244/1/248 87/1/247
f 489/1/270 461/1/271 447/1/272 488/1/273
f 459/1/264 487/1/274 484/1/275 456/1/276
f 448/1/277 462/1/278 248/1/231 91/1/237
f 461/1/271 489/1/270 486/1/279 457/1/263
f 462/1/278 491/1/280 488/1/273 447/1/272
f 451/1/281 464/1/282 239/1/239 83/1/238
f 469/1/283 471/1/284 472/1/285 449/1/286
f 452/1/287 465/1/288 240/1/241 84/1/240
f 464/1/282 474/1/289 470/1/290 450/1/291
f 453/1/262 466/1/292 241/1/245 85/1/244
f 465/1/288 476/1/293 473/1/294 451/1/281
f 455/1/295 467/1/259 242/1/251 86/1/250
f 466/1/292 478/1/296 475/1/297 452/1/287
f 456/1/276 468/1/265 245/1/253 88/1/252
f 460/1/269 483/1/298 27/1/299 24/1/300
f 450/1/291 469/1/283 238/1/234 82/1/233
f 8/1/68 147/1/71 396/1/301 22/1/302
f 147/1/71 33/1/59 252/1/303 396/1/301
f 34/1/1 148/1/4 397/1/304 253/1/305
f 148/1/4 9/1/9 23/1/306 397/1/304
f 35/1/62 149/1/65 398/1/307 254/1/308
f 149/1/65 34/1/1 253/1/305 398/1/307
f 36/1/18 150/1/75 399/1/309 255/1/310
f 150/1/75 35/1/62 254/1/308 399/1/309
f 37/1/10 151/1/13 400/1/311 256/1/312
f 151/1/13 36/1/18 255/1/310 400/1/311
f 38/1/19 152/1/22 401/1/313 257/1/314
f 152/1/22 37/1/10 256/1/312 401/1/313
f 28/1/25 153/1/28 402/1/315 258/1/316
f 153/1/28 38/1/19 257/1/314 402/1/315
f 29/1/36 143/1/317 403/1/318 251/1/319
f 143/1/317 28/1/25 258/1/316 403/1/318
f 267/1/320 142/1/321 189/1/84
f 200/1/322 404/1/323 237/1/225 62/1/324
f 189/1/84 496/1/88 176/1/87 366/1/85
f 262/1/143 97/1/142 102/1/325 200/1/322
f 259/1/326 73/1/243 218/1/242 404/1/323
f 404/1/323 218/1/242 72/1/226 237/1/225
f 200/1/322 259/1/326 404/1/323
f 197/1/223 271/1/327 274/1/328 99/1/329
f 62/1/324 497/1/140 262/1/143 200/1/322
f 496/1/88 94/1/330 274/1/328 271/1/327
f 496/1/88 271/1/327 197/1/223 499/1/89
f 60/1/174 211/1/172 405/1/90 198/1/216
f 50/1/91 176/1/87 405/1/90 211/1/172
f 121/1/331 120/1/332 341/1/60 343/1/333
f 289/1/334 119/1/335 339/1/336 434/1/61
f 113/1/337 283/1/338 406/1/339 302/1/340
f 283/1/338 114/1/341 300/1/342 406/1/339
f 409/1/343 428/1/344 331/1/345 298/1/346
f 300/1/342 328/1/347 422/1/348 406/1/339
f 121/1/331 299/1/349 301/1/350 120/1/332
f 290/1/351 121/1/331 343/1/333 436/1/352
f 334/1/353 117/1/354 286/1/355 427/1/356
f 294/1/357 125/1/358 349/1/359 442/1/360
f 286/1/355 116/1/361 332/1/362 427/1/356
f 126/1/363 294/1/357 442/1/360 351/1/364
f 440/1/365 326/1/366 348/1/367
f 295/1/368 126/1/363 351/1/364 444/1/369
f 339/1/336 119/1/335 288/1/370 432/1/371
f 111/1/372 349/1/359 440/1/365 310/1/373
f 113/1/337 295/1/368 444/1/369 329/1/374
f 288/1/370 118/1/375 336/1/376 432/1/371
f 419/1/377 115/1/378 284/1/379 327/1/380
f 116/1/361 286/1/355 407/1/381 296/1/382
f 286/1/355 117/1/354 307/1/383 407/1/381
f 411/1/384 426/1/385 328/1/347 300/1/342
f 307/1/383 335/1/386 429/1/387 407/1/381
f 122/1/388 291/1/389 408/1/390 297/1/391
f 291/1/389 123/1/392 308/1/393 408/1/390
f 308/1/393 346/1/394 438/1/395 408/1/390
f 115/1/378 285/1/396 409/1/343 298/1/346
f 285/1/396 116/1/361 296/1/382 409/1/343
f 421/1/397 431/1/398 335/1/386 307/1/383
f 296/1/382 333/1/399 428/1/344 409/1/343
f 121/1/331 290/1/351 410/1/400 299/1/349
f 290/1/351 122/1/388 297/1/391 410/1/400
f 415/1/401 443/1/402 350/1/403 306/1/404
f 297/1/391 344/1/405 437/1/406 410/1/400
f 114/1/341 284/1/379 411/1/384 300/1/342
f 284/1/379 115/1/378 298/1/346 411/1/384
f 413/1/407 425/1/408 352/1/409 304/1/410
f 298/1/346 331/1/345 426/1/385 411/1/384
f 122/1/388 290/1/351 436/1/352 345/1/411
f 410/1/400 437/1/406 342/1/412 299/1/349
f 119/1/335 289/1/334 412/1/413 303/1/414
f 289/1/334 120/1/332 301/1/350 412/1/413
f 301/1/350 340/1/415 435/1/416 412/1/413
f 126/1/363 295/1/368 413/1/407 304/1/410
f 295/1/368 113/1/337 302/1/340 413/1/407
f 406/1/339 422/1/348 330/1/417 302/1/340
f 302/1/340 330/1/417 425/1/408 413/1/407
f 118/1/375 288/1/370 414/1/418 305/1/419
f 288/1/370 119/1/335 303/1/414 414/1/418
f 412/1/413 435/1/416 338/1/420 303/1/414
f 303/1/414 338/1/420 433/1/421 414/1/418
f 125/1/358 294/1/357 415/1/401 306/1/404
f 294/1/357 126/1/363 304/1/410 415/1/401
f 416/1/422 441/1/423 347/1/424 309/1/425
f 304/1/410 352/1/409 443/1/402 415/1/401
f 138/1/426 141/1/427 321/1/428
f 132/1/429 141/1/427 316/1/430
f 124/1/431 293/1/432 416/1/422 309/1/425
f 293/1/432 125/1/358 306/1/404 416/1/422
f 417/1/433 439/1/434 346/1/394 308/1/393
f 306/1/404 350/1/403 441/1/423 416/1/422
f 123/1/392 292/1/435 417/1/433 308/1/393
f 292/1/435 124/1/431 309/1/425 417/1/433
f 408/1/390 438/1/395 344/1/405 297/1/391
f 309/1/425 347/1/424 439/1/434 417/1/433
f 111/1/372 310/1/373 418/1/436
f 310/1/373 29/1/36 251/1/319 418/1/436
f 312/1/437 141/1/427 127/1/438
f 141/1/427 129/1/439 314/1/440
f 320/1/441 141/1/427 136/1/442
f 139/1/443 141/1/427 322/1/444
f 141/1/427 135/1/445 319/1/446
f 141/1/427 320/1/441 137/1/447
f 141/1/427 130/1/448 315/1/449
f 128/1/450 141/1/427 312/1/437
f 133/1/451 141/1/427 317/1/452
f 141/1/427 138/1/426 322/1/444
f 287/1/453 117/1/354 334/1/353 430/1/454
f 278/1/455 423/1/456 419/1/377 493/1/457
f 113/1/337 329/1/374 424/1/458 283/1/338
f 116/1/361 285/1/396 423/1/456 332/1/362
f 140/1/459 141/1/427 323/1/460
f 141/1/427 139/1/443 323/1/460
f 127/1/438 141/1/427 324/1/461
f 141/1/427 132/1/429 317/1/452
f 134/1/462 141/1/427 318/1/463
f 141/1/427 140/1/459 324/1/461
f 130/1/448 141/1/427 314/1/440
f 141/1/427 133/1/451 318/1/463
f 134/1/462 135/1/445 141/1/427
f 340/1/415 342/1/412 135/1/445 134/1/462
f 136/1/442 141/1/427 319/1/446
f 131/1/464 141/1/427 315/1/449
f 313/1/465 141/1/427 128/1/450
f 103/1/179 276/1/139 376/1/100 265/1/180
f 142/1/321 94/1/330 496/1/88 189/1/84
f 495/1/466 114/1/341 283/1/338 424/1/458
f 494/1/467 495/1/466 424/1/458 277/1/468
f 118/1/375 287/1/453 430/1/454 336/1/376
f 423/1/456 285/1/396 115/1/378 419/1/377
f 29/1/36 174/1/35 420/1/469 143/1/317
f 174/1/35 40/1/83 154/1/86 420/1/469
f 420/1/469 154/1/86 39/1/29 173/1/26
f 143/1/317 420/1/469 173/1/26 28/1/25
f 453/1/262 477/1/261 478/1/296 466/1/292
f 117/1/354 287/1/453 421/1/397 307/1/383
f 287/1/453 118/1/375 305/1/419 421/1/397
f 414/1/418 433/1/421 337/1/470 305/1/419
f 305/1/419 337/1/470 431/1/398 421/1/397
f 141/1/427 137/1/447 321/1/428
f 422/1/348 328/1/347 128/1/450 312/1/437
f 330/1/417 422/1/348 312/1/437 127/1/438
f 108/1/471 332/1/362 423/1/456 278/1/455
f 493/1/457 419/1/377 327/1/380 107/1/472
f 329/1/374 106/1/473 277/1/468 424/1/458
f 425/1/408 330/1/417 127/1/438 324/1/461
f 352/1/409 425/1/408 324/1/461 140/1/459
f 426/1/385 331/1/345 129/1/439 313/1/465
f 328/1/347 426/1/385 313/1/465 128/1/450
f 109/1/474 334/1/353 427/1/356 279/1/475
f 279/1/475 427/1/356 332/1/362 108/1/471
f 428/1/344 333/1/399 130/1/448 314/1/440
f 331/1/345 428/1/344 314/1/440 129/1/439
f 429/1/387 335/1/386 131/1/464 315/1/449
f 333/1/399 429/1/387 315/1/449 130/1/448
f 110/1/476 336/1/376 430/1/454 280/1/477
f 280/1/477 430/1/454 334/1/353 109/1/474
f 431/1/398 337/1/470 132/1/429 316/1/430
f 335/1/386 431/1/398 316/1/430 131/1/464
f 311/1/478 432/1/371 336/1/376 110/1/476
f 433/1/421 338/1/420 133/1/451 317/1/452
f 337/1/470 433/1/421 317/1/452 132/1/429
f 250/1/58 434/1/61 339/1/336 33/1/59
f 435/1/416 340/1/415 134/1/462 318/1/463
f 338/1/420 435/1/416 318/1/463 133/1/451
f 342/1/412 340/1/415 301/1/350 299/1/349
f 31/1/41 345/1/411 436/1/352 146/1/50
f 146/1/50 436/1/352 343/1/333 32/1/47
f 437/1/406 344/1/405 136/1/442 319/1/446
f 342/1/412 437/1/406 319/1/446 135/1/445
f 438/1/395 346/1/394 137/1/447 320/1/441
f 344/1/405 438/1/395 320/1/441 136/1/442
f 439/1/434 347/1/424 138/1/426 321/1/428
f 346/1/394 439/1/434 321/1/428 137/1/447
f 125/1/358 293/1/432 440/1/365 349/1/359
f 441/1/423 350/1/403 139/1/443 322/1/444
f 347/1/424 441/1/423 322/1/444 138/1/426
f 112/1/479 351/1/364 442/1/360 281/1/480
f 281/1/480 442/1/360 349/1/359 111/1/372
f 443/1/402 352/1/409 140/1/459 323/1/460
f 350/1/403 443/1/402 323/1/460 139/1/443
f 106/1/473 329/1/374 444/1/369 282/1/481
f 282/1/481 444/1/369 351/1/364 112/1/479
f 310/1/373 440/1/365 498/1/482
f 30/1/40 144/1/37 445/1/483 353/1/484
f 122/1/388 345/1/411 446/1/485 291/1/389
f 31/1/41 145/1/44 446/1/485 345/1/411
f 30/1/40 353/1/484 446/1/485 145/1/44
f 141/1/427 131/1/464 316/1/430
f 93/1/486 325/1/229 259/1/326
f 498/1/482 445/1/483 29/1/36 310/1/373
f 269/1/487 40/1/83 95/1/488
f 269/1/487 268/1/489 40/1/83
f 268/1/489 267/1/320 189/1/84 40/1/83
f 101/1/137 63/1/136 104/1/490
f 63/1/136 229/1/192 264/1/230 104/1/490
f 13/1/491 474/1/289 473/1/294
f 91/1/237 248/1/231 226/1/212 80/1/211
f 25/1/492 458/1/493 243/1/255 12/1/254
f 487/1/274 459/1/264 457/1/263 486/1/279
f 458/1/493 481/1/494 479/1/495 455/1/295
f 238/1/234 469/1/283 449/1/286 81/1/235
f 474/1/289 464/1/282 451/1/281 473/1/294
f 245/1/253 468/1/265 454/1/268 87/1/247
f 491/1/280 462/1/278 448/1/277 490/1/496
f 242/1/251 467/1/259 453/1/262 85/1/244
f 241/1/245 466/1/292 452/1/287 84/1/240
f 454/1/268 482/1/267 483/1/298 460/1/269
f 240/1/241 465/1/288 451/1/281 83/1/238
f 481/1/494 458/1/493 25/1/492 26/1/497
f 239/1/239 464/1/282 450/1/291 82/1/233
f 480/1/260 467/1/259 455/1/295 479/1/495
f 249/1/236 463/1/498 448/1/277 91/1/237
f 81/1/235 449/1/286 463/1/498 249/1/236
f 248/1/231 462/1/278 447/1/272 90/1/232
f 463/1/498 492/1/499 490/1/496 448/1/277
f 247/1/258 461/1/271 457/1/263 89/1/256
f 90/1/232 447/1/272 461/1/271 247/1/258
f 244/1/248 460/1/269 24/1/300 7/1/249
f 485/1/266 468/1/265 456/1/276 484/1/275
f 246/1/257 459/1/264 456/1/276 88/1/252
f 449/1/286 472/1/285 492/1/499 463/1/498
f 243/1/255 458/1/493 455/1/295 86/1/250
f 476/1/293 13/1/491 473/1/294
f 13/1/491 476/1/293 475/1/297
f 471/1/284 13/1/491 472/1/285
f 478/1/296 13/1/491 475/1/297
f 477/1/261 13/1/491 478/1/296
f 480/1/260 13/1/491 477/1/261
f 13/1/491 480/1/260 479/1/495
f 481/1/494 13/1/491 479/1/495
f 13/1/491 481/1/494 26/1/497
f 482/1/267 13/1/491 483/1/298
f 13/1/491 485/1/266 484/1/275
f 487/1/274 13/1/491 484/1/275
f 13/1/491 487/1/274 486/1/279
f 483/1/298 13/1/491 27/1/299
f 489/1/270 13/1/491 486/1/279
f 13/1/491 489/1/270 488/1/273
f 491/1/280 13/1/491 488/1/273
f 474/1/289 13/1/491 470/1/290
f 13/1/491 491/1/280 490/1/496
f 485/1/266 13/1/491 482/1/267
f 471/1/284 469/1/283 450/1/291 470/1/290
f 476/1/293 465/1/288 452/1/287 475/1/297
f 492/1/499 13/1/491 490/1/496
f 13/1/491 471/1/284 470/1/290
f 259/1/326 325/1/229 219/1/246 73/1/243
f 74/1/191 219/1/246 325/1/229 229/1/192
f 260/1/34 41/1/33 190/1/96 266/1/95
f 95/1/488 40/1/83 174/1/35 105/1/39
f 260/1/34 266/1/95 273/1/38
f 100/1/178 263/1/105 261/1/99 96/1/98
f 472/1/285 13/1/491 492/1/499
f 327/1/380 284/1/379 114/1/341 495/1/466
f 123/1/392 291/1/389 446/1/485
f 107/1/472 327/1/380 495/1/466 494/1/467
f 407/1/381 429/1/387 333/1/399 296/1/382
f 141/1/427 313/1/465 129/1/439
f 361/1/54 92/1/53 250/1/58 168/1/57
f 343/1/333 341/1/60 92/1/53 32/1/47
f 52/1/109 59/1/135 265/1/180 376/1/100
f 93/1/486 259/1/326 200/1/322 102/1/325
f 62/1/324 237/1/225 395/1/228 199/1/224
f 405/1/90 499/1/89 61/1/213 198/1/216
f 197/1/223 99/1/329 270/1/141 497/1/140
f 348/1/367 353/1/484 445/1/483 498/1/482
f 445/1/483 144/1/37 29/1/36
f 326/1/366 446/1/485 353/1/484 348/1/367
f 498/1/482 440/1/365 348/1/367
f 339/1/336 432/1/371 311/1/478 252/1/303 33/1/59
f 124/1/431 292/1/435 326/1/366
f 341/1/60 120/1/332 289/1/334 434/1/61
f 293/1/432 124/1/431 326/1/366 440/1/365
f 292/1/435 123/1/392 446/1/485 326/1/366
f 265/1/180 59/1/135 385/1/138
f 177/1/110 52/1/109 376/1/100
f 199/1/224 197/1/223 497/1/140 62/1/324
f 506/1/500 620/1/501 826/1/502 639/1/503
f 639/1/503 826/1/502 631/1/504 517/1/505
f 826/1/502 14/1/8 11/1/7 631/1/504
f 620/1/501 9/1/9 14/1/8 826/1/502
f 509/1/506 623/1/507 827/1/508 643/1/509
f 643/1/509 827/1/508 634/1/510 520/1/511
f 827/1/508 642/1/512 519/1/513 634/1/510
f 623/1/507 508/1/514 642/1/512 827/1/508
f 510/1/515 624/1/516 828/1/517 644/1/518
f 644/1/518 828/1/517 635/1/519 521/1/520
f 828/1/517 643/1/509 520/1/511 635/1/519
f 624/1/516 509/1/506 643/1/509 828/1/517
f 500/1/521 625/1/522 829/1/523 645/1/524
f 645/1/524 829/1/523 636/1/525 511/1/526
f 829/1/523 644/1/518 521/1/520 636/1/525
f 625/1/522 510/1/515 644/1/518 829/1/523
f 830/1/527 732/1/528 513/1/529 647/1/530
f 646/1/531 830/1/527 616/1/532 501/1/533
f 646/1/531 577/1/534 745/1/535 732/1/528 830/1/527
f 830/1/527 647/1/530 502/1/536 616/1/532
f 503/1/537 617/1/538 831/1/539 637/1/540
f 637/1/540 831/1/539 627/1/541 514/1/542
f 831/1/539 647/1/530 513/1/529 627/1/541
f 617/1/538 502/1/536 647/1/530 831/1/539
f 504/1/543 618/1/544 832/1/545 638/1/546
f 638/1/546 832/1/545 628/1/547 515/1/548
f 832/1/545 637/1/540 514/1/542 628/1/547
f 618/1/544 503/1/537 637/1/540 832/1/545
f 504/1/543 638/1/546 833/1/549 564/1/550
f 516/1/551 640/1/552 833/1/549 629/1/553
f 515/1/548 629/1/553 833/1/549 638/1/546
f 640/1/552 505/1/554 722/1/555
f 564/1/550 722/1/555 906/1/556 813/1/557
f 507/1/558 621/1/559 834/1/560 641/1/561
f 641/1/561 834/1/560 632/1/562 518/1/563
f 834/1/560 639/1/503 517/1/505 632/1/562
f 621/1/559 506/1/500 639/1/503 834/1/560
f 8/1/68 619/1/564 835/1/565 15/1/69
f 15/1/69 835/1/565 630/1/566 10/1/72
f 835/1/565 640/1/552 516/1/551 630/1/566
f 619/1/564 505/1/554 640/1/552 835/1/565
f 508/1/514 622/1/567 836/1/568 642/1/512
f 642/1/512 836/1/568 633/1/569 519/1/513
f 836/1/568 641/1/561 518/1/563 633/1/569
f 622/1/567 507/1/558 641/1/561 836/1/568
f 521/1/520 635/1/519 837/1/570 659/1/571
f 659/1/571 837/1/570 656/1/572 530/1/573
f 837/1/570 658/1/574 529/1/575 656/1/572
f 635/1/519 520/1/511 658/1/574 837/1/570
f 512/1/576 626/1/577 838/1/578 661/1/579
f 648/1/580 877/1/581 971/1/582 968/1/583
f 838/1/578 660/1/584 522/1/585 648/1/580
f 626/1/577 511/1/526 660/1/584 838/1/578
f 511/1/526 636/1/525 839/1/586 660/1/584
f 660/1/584 839/1/586 657/1/587 522/1/585
f 839/1/586 659/1/571 530/1/573 657/1/587
f 636/1/525 521/1/520 659/1/571 839/1/586
f 738/1/588 570/1/589 662/1/590
f 568/1/591 747/1/592 848/1/593 733/1/594
f 514/1/542 627/1/541 840/1/595 663/1/596
f 523/1/597 663/1/596 840/1/595 735/1/598
f 570/1/589 744/1/599 840/1/595 662/1/590
f 513/1/529 662/1/590 840/1/595 627/1/541
f 515/1/548 628/1/547 841/1/600 664/1/601
f 664/1/601 841/1/600 649/1/602 524/1/603
f 841/1/600 663/1/596 523/1/597 649/1/602
f 628/1/547 514/1/542 663/1/596 841/1/600
f 517/1/505 631/1/504 842/1/604 665/1/605
f 665/1/605 842/1/604 652/1/606 526/1/607
f 842/1/604 16/1/116 2/1/115 652/1/606
f 631/1/504 11/1/7 16/1/116 842/1/604
f 516/1/551 629/1/553 843/1/608 666/1/609
f 666/1/609 843/1/608 650/1/610 525/1/611
f 843/1/608 664/1/601 524/1/603 650/1/610
f 629/1/553 515/1/548 664/1/601 843/1/608
f 518/1/563 632/1/562 844/1/612 667/1/613
f 667/1/613 844/1/612 653/1/614 527/1/615
f 844/1/612 665/1/605 526/1/607 653/1/614
f 632/1/562 517/1/505 665/1/605 844/1/612
f 10/1/72 630/1/566 845/1/616 17/1/125
f 17/1/125 845/1/616 651/1/617 1/1/127
f 845/1/616 666/1/609 525/1/611 651/1/617
f 630/1/566 516/1/551 666/1/609 845/1/616
f 519/1/513 633/1/569 846/1/618 668/1/619
f 668/1/619 846/1/618 654/1/620 528/1/621
f 846/1/618 667/1/613 527/1/615 654/1/620
f 633/1/569 518/1/563 667/1/613 846/1/618
f 520/1/511 634/1/510 847/1/622 658/1/574
f 658/1/574 847/1/622 655/1/623 529/1/575
f 847/1/622 668/1/619 528/1/621 655/1/623
f 634/1/510 519/1/513 668/1/619 847/1/622
f 531/1/624 857/1/625 573/1/626 535/1/627
f 747/1/592 748/1/628 848/1/593
f 969/1/629 734/1/630 569/1/631 742/1/632
f 523/1/597 733/1/594 848/1/593 649/1/602
f 527/1/615 653/1/614 849/1/633 686/1/634
f 686/1/634 849/1/633 676/1/635 538/1/636
f 849/1/633 684/1/637 537/1/638 676/1/635
f 653/1/614 526/1/607 684/1/637 849/1/633
f 1/1/127 651/1/617 850/1/639 19/1/150
f 19/1/150 850/1/639 674/1/640 3/1/152
f 850/1/639 685/1/641 536/1/642 674/1/640
f 651/1/617 525/1/611 685/1/641 850/1/639
f 528/1/621 654/1/620 851/1/643 687/1/644
f 687/1/644 851/1/643 677/1/645 539/1/646
f 851/1/643 686/1/634 538/1/636 677/1/645
f 654/1/620 527/1/615 686/1/634 851/1/643
f 526/1/607 652/1/606 852/1/647 684/1/637
f 684/1/637 852/1/647 675/1/648 537/1/638
f 852/1/647 18/1/163 4/1/162 675/1/648
f 652/1/606 2/1/115 18/1/163 852/1/647
f 529/1/575 655/1/623 853/1/649 681/1/650
f 681/1/650 853/1/649 678/1/651 540/1/652
f 853/1/649 687/1/644 539/1/646 678/1/651
f 655/1/623 528/1/621 687/1/644 853/1/649
f 530/1/573 656/1/572 854/1/653 682/1/654
f 682/1/654 854/1/653 679/1/655 541/1/656
f 854/1/653 681/1/650 540/1/652 679/1/655
f 656/1/572 529/1/575 681/1/650 854/1/653
f 522/1/585 657/1/587 855/1/657 683/1/658
f 683/1/658 855/1/657 680/1/659 532/1/660
f 855/1/657 682/1/654 541/1/656 680/1/659
f 657/1/587 530/1/573 682/1/654 855/1/657
f 525/1/611 650/1/610 856/1/661 685/1/641
f 536/1/642 685/1/641 856/1/661 673/1/662
f 524/1/603 531/1/624 856/1/661 650/1/610
f 735/1/598 733/1/594 523/1/597
f 744/1/599 572/1/663 735/1/598 840/1/595
f 531/1/624 535/1/627 673/1/662 856/1/661
f 575/1/664 857/1/625 737/1/665
f 537/1/638 675/1/648 858/1/666 700/1/667
f 700/1/667 858/1/666 694/1/668 548/1/669
f 858/1/666 20/1/186 6/1/185 694/1/668
f 675/1/648 4/1/162 20/1/186 858/1/666
f 536/1/642 673/1/662 859/1/670 702/1/671
f 702/1/671 859/1/670 692/1/672 547/1/673
f 859/1/670 701/1/674 546/1/675 692/1/672
f 673/1/662 535/1/627 701/1/674 859/1/670
f 538/1/636 676/1/635 860/1/676 703/1/677
f 703/1/677 860/1/676 695/1/678 549/1/679
f 860/1/676 700/1/667 548/1/669 695/1/678
f 676/1/635 537/1/638 700/1/667 860/1/676
f 3/1/152 674/1/640 861/1/680 21/1/197
f 21/1/197 861/1/680 693/1/681 5/1/199
f 861/1/680 702/1/671 547/1/673 693/1/681
f 674/1/640 536/1/642 702/1/671 861/1/680
f 539/1/646 677/1/645 862/1/682 704/1/683
f 704/1/683 862/1/682 696/1/684 550/1/685
f 862/1/682 703/1/677 549/1/679 696/1/684
f 677/1/645 538/1/636 703/1/677 862/1/682
f 540/1/652 678/1/651 863/1/686 705/1/687
f 705/1/687 863/1/686 697/1/688 551/1/689
f 863/1/686 704/1/683 550/1/685 697/1/688
f 678/1/651 539/1/646 704/1/683 863/1/686
f 541/1/656 679/1/655 864/1/690 706/1/691
f 706/1/691 864/1/690 698/1/692 552/1/693
f 864/1/690 705/1/687 551/1/689 698/1/692
f 679/1/655 540/1/652 705/1/687 864/1/690
f 533/1/694 670/1/695 865/1/696 708/1/697
f 708/1/697 865/1/696 688/1/698 543/1/699
f 865/1/696 707/1/700 542/1/701 688/1/698
f 670/1/695 532/1/660 707/1/700 865/1/696
f 532/1/660 680/1/659 866/1/702 707/1/700
f 707/1/700 866/1/702 699/1/703 542/1/701
f 866/1/702 706/1/691 552/1/693 699/1/703
f 680/1/659 541/1/656 706/1/691 866/1/702
f 533/1/694 671/1/704 669/1/705 971/1/582
f 709/1/706 867/1/707 689/1/708 544/1/709
f 867/1/707 708/1/697 543/1/699 689/1/708
f 671/1/704 533/1/694 708/1/697 867/1/707
f 701/1/674 736/1/710 797/1/711
f 698/1/692 551/1/689 562/1/712 720/1/713
f 554/1/714 543/1/699 688/1/698 710/1/715
f 688/1/698 542/1/701 553/1/716 710/1/715
f 542/1/701 699/1/703 721/1/717 553/1/716
f 699/1/703 552/1/693 563/1/718 721/1/717
f 555/1/719 544/1/709 689/1/708 711/1/720
f 689/1/708 543/1/699 554/1/714 711/1/720
f 556/1/721 545/1/722 690/1/723 712/1/724
f 690/1/723 544/1/709 555/1/719 712/1/724
f 557/1/725 546/1/675 691/1/726 713/1/727
f 691/1/726 545/1/722 556/1/721 713/1/727
f 559/1/728 548/1/669 694/1/668 716/1/729
f 694/1/668 6/1/185 7/1/249 716/1/729
f 558/1/730 547/1/673 692/1/672 714/1/731
f 692/1/672 546/1/675 557/1/725 714/1/731
f 560/1/732 549/1/679 695/1/678 717/1/733
f 695/1/678 548/1/669 559/1/728 717/1/733
f 12/1/254 5/1/199 693/1/681 715/1/734
f 693/1/681 547/1/673 558/1/730 715/1/734
f 561/1/735 550/1/685 696/1/684 718/1/736
f 696/1/684 549/1/679 560/1/732 718/1/736
f 551/1/689 697/1/688 719/1/737 562/1/712
f 697/1/688 550/1/685 561/1/735 719/1/737
f 939/1/738 925/1/739 949/1/740 952/1/741
f 929/1/742 561/1/735 718/1/736 931/1/743
f 940/1/744 926/1/745 954/1/746 957/1/747
f 926/1/745 559/1/728 716/1/729 932/1/748
f 961/1/749 960/1/750 919/1/751 933/1/752
f 931/1/743 928/1/753 956/1/754 959/1/755
f 920/1/756 563/1/718 720/1/713 934/1/757
f 933/1/752 929/1/742 958/1/758 961/1/749
f 934/1/757 919/1/751 960/1/750 963/1/759
f 923/1/760 555/1/719 711/1/720 936/1/761
f 941/1/762 921/1/763 944/1/764 943/1/765
f 924/1/766 556/1/721 712/1/724 937/1/767
f 936/1/761 922/1/768 942/1/769 946/1/770
f 925/1/739 557/1/725 713/1/727 938/1/771
f 937/1/767 923/1/760 945/1/772 948/1/773
f 927/1/774 558/1/730 714/1/731 939/1/738
f 938/1/771 924/1/766 947/1/775 950/1/776
f 928/1/753 560/1/732 717/1/733 940/1/744
f 932/1/748 24/1/300 27/1/299 955/1/777
f 922/1/768 554/1/714 710/1/715 941/1/762
f 8/1/68 22/1/302 868/1/778 619/1/564
f 619/1/564 868/1/778 724/1/779 505/1/554
f 506/1/500 725/1/780 869/1/781 620/1/501
f 620/1/501 869/1/781 23/1/306 9/1/9
f 507/1/558 726/1/782 870/1/783 621/1/559
f 621/1/559 870/1/783 725/1/780 506/1/500
f 508/1/514 727/1/784 871/1/785 622/1/567
f 622/1/567 871/1/785 726/1/782 507/1/558
f 509/1/506 728/1/786 872/1/787 623/1/507
f 623/1/507 872/1/787 727/1/784 508/1/514
f 510/1/515 729/1/788 873/1/789 624/1/516
f 624/1/516 873/1/789 728/1/786 509/1/506
f 500/1/521 730/1/790 874/1/791 625/1/522
f 625/1/522 874/1/791 729/1/788 510/1/515
f 501/1/533 723/1/792 875/1/793 615/1/794
f 615/1/794 875/1/793 730/1/790 500/1/521
f 739/1/795 661/1/579 614/1/796
f 672/1/797 534/1/798 709/1/706 876/1/799
f 661/1/579 838/1/578 648/1/580 968/1/583
f 734/1/630 672/1/797 574/1/800 569/1/631
f 731/1/801 876/1/799 690/1/723 545/1/722
f 876/1/799 709/1/706 544/1/709 690/1/723
f 672/1/797 876/1/799 731/1/801
f 669/1/705 571/1/802 746/1/803 743/1/804
f 534/1/798 672/1/797 734/1/630 969/1/629
f 968/1/583 743/1/804 746/1/803 566/1/805
f 968/1/583 971/1/582 669/1/705 743/1/804
f 532/1/660 670/1/695 877/1/581 683/1/658
f 522/1/585 683/1/658 877/1/581 648/1/580
f 593/1/806 815/1/807 813/1/557 592/1/808
f 761/1/809 906/1/556 811/1/810 591/1/811
f 585/1/812 774/1/813 878/1/814 755/1/815
f 755/1/815 878/1/814 772/1/816 586/1/817
f 881/1/818 770/1/819 803/1/820 900/1/821
f 772/1/816 878/1/814 894/1/822 800/1/823
f 593/1/806 592/1/808 773/1/824 771/1/825
f 762/1/826 908/1/827 815/1/807 593/1/806
f 806/1/828 899/1/829 758/1/830 589/1/831
f 766/1/832 914/1/833 821/1/834 597/1/835
f 758/1/830 899/1/829 804/1/836 588/1/837
f 598/1/838 823/1/839 914/1/833 766/1/832
f 912/1/840 820/1/841 798/1/842
f 767/1/843 916/1/844 823/1/839 598/1/838
f 811/1/810 904/1/845 760/1/846 591/1/811
f 583/1/847 782/1/848 912/1/840 821/1/834
f 585/1/812 801/1/849 916/1/844 767/1/843
f 760/1/846 904/1/845 808/1/850 590/1/851
f 891/1/852 799/1/853 756/1/854 587/1/855
f 588/1/837 768/1/856 879/1/857 758/1/830
f 758/1/830 879/1/857 779/1/858 589/1/831
f 883/1/859 772/1/816 800/1/823 898/1/860
f 779/1/858 879/1/857 901/1/861 807/1/862
f 594/1/863 769/1/864 880/1/865 763/1/866
f 763/1/866 880/1/865 780/1/867 595/1/868
f 780/1/867 880/1/865 910/1/869 818/1/870
f 587/1/855 770/1/819 881/1/818 757/1/871
f 757/1/871 881/1/818 768/1/856 588/1/837
f 893/1/872 779/1/858 807/1/862 903/1/873
f 768/1/856 881/1/818 900/1/821 805/1/874
f 593/1/806 771/1/825 882/1/875 762/1/826
f 762/1/826 882/1/875 769/1/864 594/1/863
f 887/1/876 778/1/877 822/1/878 915/1/879
f 769/1/864 882/1/875 909/1/880 816/1/881
f 586/1/817 772/1/816 883/1/859 756/1/854
f 756/1/854 883/1/859 770/1/819 587/1/855
f 885/1/882 776/1/883 824/1/884 897/1/885
f 770/1/819 883/1/859 898/1/860 803/1/820
f 594/1/863 817/1/886 908/1/827 762/1/826
f 882/1/875 771/1/825 814/1/887 909/1/880
f 591/1/811 775/1/888 884/1/889 761/1/809
f 761/1/809 884/1/889 773/1/824 592/1/808
f 773/1/824 884/1/889 907/1/890 812/1/891
f 598/1/838 776/1/883 885/1/882 767/1/843
f 767/1/843 885/1/882 774/1/813 585/1/812
f 878/1/814 774/1/813 802/1/892 894/1/822
f 774/1/813 885/1/882 897/1/885 802/1/892
f 590/1/851 777/1/893 886/1/894 760/1/846
f 760/1/846 886/1/894 775/1/888 591/1/811
f 884/1/889 775/1/888 810/1/895 907/1/890
f 775/1/888 886/1/894 905/1/896 810/1/895
f 597/1/835 778/1/877 887/1/876 766/1/832
f 766/1/832 887/1/876 776/1/883 598/1/838
f 888/1/897 781/1/898 819/1/899 913/1/900
f 776/1/883 887/1/876 915/1/879 824/1/884
f 610/1/901 793/1/902 613/1/427
f 604/1/903 788/1/904 613/1/427
f 596/1/905 781/1/898 888/1/897 765/1/906
f 765/1/906 888/1/897 778/1/877 597/1/835
f 889/1/907 780/1/867 818/1/870 911/1/908
f 778/1/877 888/1/897 913/1/900 822/1/878
f 595/1/868 780/1/867 889/1/907 764/1/909
f 764/1/909 889/1/907 781/1/898 596/1/905
f 880/1/865 769/1/864 816/1/881 910/1/869
f 781/1/898 889/1/907 911/1/908 819/1/899
f 583/1/847 890/1/910 782/1/848
f 782/1/848 890/1/910 723/1/792 501/1/533
f 784/1/911 599/1/912 613/1/427
f 613/1/427 786/1/913 601/1/914
f 792/1/915 608/1/916 613/1/427
f 611/1/917 794/1/918 613/1/427
f 613/1/427 791/1/919 607/1/920
f 613/1/427 609/1/921 792/1/915
f 613/1/427 787/1/922 602/1/923
f 600/1/924 784/1/911 613/1/427
f 605/1/925 789/1/926 613/1/427
f 613/1/427 794/1/918 610/1/901
f 759/1/927 902/1/928 806/1/828 589/1/831
f 750/1/929 965/1/930 891/1/852 895/1/931
f 585/1/812 755/1/815 896/1/932 801/1/849
f 588/1/837 804/1/836 895/1/931 757/1/871
f 612/1/933 795/1/934 613/1/427
f 613/1/427 795/1/934 611/1/917
f 599/1/912 796/1/935 613/1/427
f 613/1/427 789/1/926 604/1/903
f 606/1/936 790/1/937 613/1/427
f 613/1/427 796/1/935 612/1/933
f 602/1/923 786/1/913 613/1/427
f 613/1/427 790/1/937 605/1/925
f 606/1/936 613/1/427 607/1/920
f 812/1/891 606/1/936 607/1/920 814/1/887
f 608/1/916 791/1/919 613/1/427
f 603/1/938 787/1/922 613/1/427
f 785/1/939 600/1/924 613/1/427
f 575/1/664 737/1/665 848/1/593 748/1/628
f 614/1/796 661/1/579 968/1/583 566/1/805
f 967/1/940 896/1/932 755/1/815 586/1/817
f 966/1/941 749/1/942 896/1/932 967/1/940
f 590/1/851 808/1/850 902/1/928 759/1/927
f 895/1/931 891/1/852 587/1/855 757/1/871
f 501/1/533 615/1/794 892/1/943 646/1/531
f 646/1/531 892/1/943 626/1/577 512/1/576
f 892/1/943 645/1/524 511/1/526 626/1/577
f 615/1/794 500/1/521 645/1/524 892/1/943
f 925/1/739 938/1/771 950/1/776 949/1/740
f 589/1/831 779/1/858 893/1/872 759/1/927
f 759/1/927 893/1/872 777/1/893 590/1/851
f 886/1/894 777/1/893 809/1/944 905/1/896
f 777/1/893 893/1/872 903/1/873 809/1/944
f 613/1/427 793/1/902 609/1/921
f 894/1/822 784/1/911 600/1/924 800/1/823
f 802/1/892 599/1/912 784/1/911 894/1/822
f 580/1/945 750/1/929 895/1/931 804/1/836
f 965/1/930 579/1/946 799/1/853 891/1/852
f 801/1/849 896/1/932 749/1/942 578/1/947
f 897/1/885 796/1/935 599/1/912 802/1/892
f 824/1/884 612/1/933 796/1/935 897/1/885
f 898/1/860 785/1/939 601/1/914 803/1/820
f 800/1/823 600/1/924 785/1/939 898/1/860
f 581/1/948 751/1/949 899/1/829 806/1/828
f 751/1/949 580/1/945 804/1/836 899/1/829
f 900/1/821 786/1/913 602/1/923 805/1/874
f 803/1/820 601/1/914 786/1/913 900/1/821
f 901/1/861 787/1/922 603/1/938 807/1/862
f 805/1/874 602/1/923 787/1/922 901/1/861
f 582/1/950 752/1/951 902/1/928 808/1/850
f 752/1/951 581/1/948 806/1/828 902/1/928
f 903/1/873 788/1/904 604/1/903 809/1/944
f 807/1/862 603/1/938 788/1/904 903/1/873
f 783/1/952 582/1/950 808/1/850 904/1/845
f 905/1/896 789/1/926 605/1/925 810/1/895
f 809/1/944 604/1/903 789/1/926 905/1/896
f 722/1/555 505/1/554 811/1/810 906/1/556
f 907/1/890 790/1/937 606/1/936 812/1/891
f 810/1/895 605/1/925 790/1/937 907/1/890
f 814/1/887 771/1/825 773/1/824 812/1/891
f 503/1/537 618/1/544 908/1/827 817/1/886
f 618/1/544 504/1/543 815/1/807 908/1/827
f 909/1/880 791/1/919 608/1/916 816/1/881
f 814/1/887 607/1/920 791/1/919 909/1/880
f 910/1/869 792/1/915 609/1/921 818/1/870
f 816/1/881 608/1/916 792/1/915 910/1/869
f 911/1/908 793/1/902 610/1/901 819/1/899
f 818/1/870 609/1/921 793/1/902 911/1/908
f 597/1/835 821/1/834 912/1/840 765/1/906
f 913/1/900 794/1/918 611/1/917 822/1/878
f 819/1/899 610/1/901 794/1/918 913/1/900
f 584/1/953 753/1/954 914/1/833 823/1/839
f 753/1/954 583/1/847 821/1/834 914/1/833
f 915/1/879 795/1/934 612/1/933 824/1/884
f 822/1/878 611/1/917 795/1/934 915/1/879
f 578/1/947 754/1/955 916/1/844 801/1/849
f 754/1/955 584/1/953 823/1/839 916/1/844
f 782/1/848 970/1/956 912/1/840
f 502/1/536 825/1/957 917/1/958 616/1/532
f 594/1/863 763/1/866 918/1/959 817/1/886
f 503/1/537 817/1/886 918/1/959 617/1/538
f 502/1/536 617/1/538 918/1/959 825/1/957
f 613/1/427 788/1/904 603/1/938
f 565/1/960 731/1/801 797/1/711
f 970/1/956 782/1/848 501/1/533 917/1/958
f 741/1/961 567/1/962 512/1/576
f 741/1/961 512/1/576 740/1/963
f 740/1/963 512/1/576 661/1/579 739/1/795
f 573/1/626 576/1/964 535/1/627
f 535/1/627 576/1/964 736/1/710 701/1/674
f 13/1/491 945/1/772 946/1/770
f 563/1/718 552/1/693 698/1/692 720/1/713
f 25/1/492 12/1/254 715/1/734 930/1/965
f 959/1/755 958/1/758 929/1/742 931/1/743
f 930/1/965 927/1/774 951/1/966 953/1/967
f 710/1/715 553/1/716 921/1/763 941/1/762
f 946/1/770 945/1/772 923/1/760 936/1/761
f 717/1/733 559/1/728 926/1/745 940/1/744
f 963/1/759 962/1/968 920/1/756 934/1/757
f 714/1/731 557/1/725 925/1/739 939/1/738
f 713/1/727 556/1/721 924/1/766 938/1/771
f 926/1/745 932/1/748 955/1/777 954/1/746
f 712/1/724 555/1/719 923/1/760 937/1/767
f 953/1/967 26/1/497 25/1/492 930/1/965
f 711/1/720 554/1/714 922/1/768 936/1/761
f 952/1/741 951/1/966 927/1/774 939/1/738
f 721/1/717 563/1/718 920/1/756 935/1/969
f 553/1/716 721/1/717 935/1/969 921/1/763
f 720/1/713 562/1/712 919/1/751 934/1/757
f 935/1/969 920/1/756 962/1/968 964/1/970
f 719/1/737 561/1/735 929/1/742 933/1/752
f 562/1/712 719/1/737 933/1/752 919/1/751
f 716/1/729 7/1/249 24/1/300 932/1/748
f 957/1/747 956/1/754 928/1/753 940/1/744
f 718/1/736 560/1/732 928/1/753 931/1/743
f 921/1/763 935/1/969 964/1/970 944/1/764
f 715/1/734 558/1/730 927/1/774 930/1/965
f 948/1/773 945/1/772 13/1/491
f 13/1/491 947/1/775 948/1/773
f 943/1/765 944/1/764 13/1/491
f 950/1/776 947/1/775 13/1/491
f 949/1/740 950/1/776 13/1/491
f 952/1/741 949/1/740 13/1/491
f 13/1/491 951/1/966 952/1/741
f 953/1/967 951/1/966 13/1/491
f 13/1/491 26/1/497 953/1/967
f 954/1/746 955/1/777 13/1/491
f 13/1/491 956/1/754 957/1/747
f 959/1/755 956/1/754 13/1/491
f 13/1/491 958/1/758 959/1/755
f 955/1/777 27/1/299 13/1/491
f 961/1/749 958/1/758 13/1/491
f 13/1/491 960/1/750 961/1/749
f 963/1/759 960/1/750 13/1/491
f 946/1/770 942/1/769 13/1/491
f 13/1/491 962/1/968 963/1/759
f 957/1/747 954/1/746 13/1/491
f 943/1/765 942/1/769 922/1/768 941/1/762
f 948/1/773 947/1/775 924/1/766 937/1/767
f 964/1/970 962/1/968 13/1/491
f 13/1/491 942/1/769 943/1/765
f 731/1/801 545/1/722 691/1/726 797/1/711
f 546/1/675 701/1/674 797/1/711 691/1/726
f 732/1/528 738/1/588 662/1/590 513/1/529
f 567/1/962 577/1/534 646/1/531 512/1/576
f 732/1/528 745/1/535 738/1/588
f 572/1/663 568/1/591 733/1/594 735/1/598
f 944/1/764 964/1/970 13/1/491
f 799/1/853 967/1/940 586/1/817 756/1/854
f 595/1/868 918/1/959 763/1/866
f 579/1/946 966/1/941 967/1/940 799/1/853
f 879/1/857 768/1/856 805/1/874 901/1/861
f 613/1/427 601/1/914 785/1/939
f 833/1/549 640/1/552 722/1/555 564/1/550
f 815/1/807 504/1/543 564/1/550 813/1/557
f 524/1/603 848/1/593 737/1/665 531/1/624
f 565/1/960 574/1/800 672/1/797 731/1/801
f 534/1/798 671/1/704 867/1/707 709/1/706
f 877/1/581 670/1/695 533/1/694 971/1/582
f 669/1/705 969/1/629 742/1/632 571/1/802
f 820/1/841 970/1/956 917/1/958 825/1/957
f 917/1/958 501/1/533 616/1/532
f 798/1/842 820/1/841 825/1/957 918/1/959
f 970/1/956 820/1/841 912/1/840
f 811/1/810 505/1/554 724/1/779 783/1/952 904/1/845
f 596/1/905 798/1/842 764/1/909
f 813/1/557 906/1/556 761/1/809 592/1/808
f 765/1/906 912/1/840 798/1/842 596/1/905
f 764/1/909 798/1/842 918/1/959 595/1/868
f 737/1/665 857/1/625 531/1/624
f 649/1/602 848/1/593 524/1/603
f 671/1/704 534/1/798 969/1/629 669/1/705
